<svg data-name="Layer 1" xmlns="http://www.w3.org/2000/svg" width="106.43" height="98" viewBox="0 0 106.43 98"><title>brush</title><path d="M49.72 72.88v-.52c0-.48-.12-1-.19-1.45-.05-.32-.1-.64-.17-1h-.69a14.31 14.31 0 0 1-10.46-4.74l-.31-.32a14.27 14.27 0 0 1-4.21-10.35 34.4 34.4 0 0 0-6.86-.3c-.64 0-1.26.11-1.87.2h-.29c-.6.09-1.19.21-1.76.35-.57.14-1.12.31-1.66.5l-.34.13q-.61.23-1.19.5l-.4.19a15.49 15.49 0 0 0-1.38.77c-6.68 4.25-8.44 12.27-9.9 21.54C6.73 86.7 4.31 92.15.64 95.07a1.58 1.58 0 0 0-.26 2.22 1.55 1.55 0 0 0 .12.11 1.59 1.59 0 0 0 .23.22l.17.08a1.57 1.57 0 0 0 .26.12h.2a1.55 1.55 0 0 0 .31 0c.93 0 1.88-.06 2.83-.07 5.78-1.29 30.29-7.64 32.77-23a1.34 1.34 0 1 1 2.64.42c-2 12.24-15.55 19.11-25.5 22.56 1.22 0 2.44 0 3.66-.09 5.38-1.51 22.29-7.32 24.88-21a1.34 1.34 0 0 1 2.63.5c-1.82 9.59-9.54 15.59-16.51 19.12l1.26-.33.31-.09 1.16-.35.52-.17 1.05-.37 1-.41 1.07-.48 1-.48.64-.34 1-.6.53-.32c.52-.33 1-.67 1.54-1 5.3-3.86 8.53-8.82 9.35-14.37a19.55 19.55 0 0 0 .2-2.39c.09-.46.06-1.07.02-1.68zM26.98 59.79c-9.38.6-11 7.28-12.14 11.7l-.09.38a1.34 1.34 0 0 1-1.29 1 1.35 1.35 0 0 1-.33 0 1.34 1.34 0 0 1-1-1.62l.09-.37c1.05-4.22 3.24-13 14.57-13.72a1.34 1.34 0 1 1 .19 2.63z" fill="#3EAE68"/><path d="M106.24 2.14A1.33 1.33 0 0 0 106 .49a1.62 1.62 0 0 0-.32-.25l-.09-.05a1.52 1.52 0 0 0-.38-.15 1.23 1.23 0 0 0-.38 0h-.1a1 1 0 0 0-.37.14c-28 18.25-46.53 28.29-61.34 42.28l-.18.18a1.34 1.34 0 0 1 0 .26c-.06.4-1.36 9.78 9 15.07a1.34 1.34 0 0 1-1.21 2.38c-8.28-4.22-10.14-10.92-10.47-14.81-.48.6-.91 1.19-1.3 1.79l-.13.2c-.16.26-.31.51-.46.76l-.24.44c-.12.22-.24.44-.35.67s-.32.7-.46 1c-.06.15-.11.29-.16.44s-.19.54-.26.82-.07.26-.11.39c-.1.4-.19.79-.25 1.18a11.5 11.5 0 0 0 3.36 9.83l.3.32c.33.34.66.66 1 1l.34.28c.23.19.47.38.71.55l.42.28c.22.14.44.29.67.41l.46.24.67.32.49.19.69.23.5.14c.24.06.48.1.72.15l.49.08c.26 0 .52 0 .78.06h.46a11.25 11.25 0 0 0 1.23 0c3.59-.36 7.34-2.38 11.15-6 14.75-14.14 25.71-32.09 45.36-59.17z" fill="#66cdcc"/></svg>