<svg data-name="Layer 1" xmlns="http://www.w3.org/2000/svg" width="91.32" height="138.66" viewBox="0 0 91.32 138.66"><title>bulb</title><path d="M37.16 120.87a42.45 42.45 0 0 0 4.2.64 43.11 43.11 0 0 0 8.65 0c1.4-.14 2.82-.36 4.2-.64 1-.21 2.06-.48 3.08-.77v-8.72a44.87 44.87 0 0 1-23.2 0v8.76c.99.25 2.01.52 3.07.73zm17.56 2.61c-1.47.3-3 .53-4.46.68a45.72 45.72 0 0 1-9.19 0c-1.49-.15-3-.38-4.46-.68-.85-.17-1.7-.38-2.54-.61v1.08a10.9 10.9 0 0 0 8.44 10.6 3.28 3.28 0 1 0 6.33 0 10.9 10.9 0 0 0 8.44-10.6v-1.08c-.86.27-1.71.44-2.56.61z" fill="#66cdcc"/><path d="M27.88 66.82a6.535 6.535 0 1 0 0 13.07h6.53v-6.53a6.54 6.54 0 0 0-6.53-6.54zm35.56 0a6.54 6.54 0 0 0-6.53 6.53v6.53h6.53a6.53 6.53 0 1 0 0-13.06z" fill="#3EAE68"/><path d="M45.66 14.55a1.34 1.34 0 0 1-1.34-1.34V1.34a1.34 1.34 0 1 1 2.67 0v11.88a1.34 1.34 0 0 1-1.33 1.33zm35.93 15.32a1.34 1.34 0 0 1-.94-2.28l8.4-8.4a1.34 1.34 0 0 1 1.89 1.89l-8.4 8.4a1.33 1.33 0 0 1-.95.39zm-71.86 0a1.33 1.33 0 0 1-.94-.39l-8.4-8.4a1.34 1.34 0 1 1 1.89-1.89l8.4 8.4a1.34 1.34 0 0 1-.95 2.28z" fill="#66cdcc"/><path d="M63.44 82.56h-6.53v26.14a41.55 41.55 0 1 0-2.49.61 1.3 1.3 0 0 1-.18-.63V82.54H37.09v15.14a1.34 1.34 0 1 1-2.67 0V82.54h-6.53a9.2 9.2 0 1 1 9.2-9.2v6.53h17.15v-6.53a9.2 9.2 0 1 1 9.2 9.22zM45.66 33.31a34.68 34.68 0 0 0-34.64 34.64 1.34 1.34 0 1 1-2.67 0 37.36 37.36 0 0 1 37.31-37.32 1.34 1.34 0 0 1 0 2.68z" fill="#3EAE68"/></svg>