<svg xmlns="http://www.w3.org/2000/svg" viewBox="0 0 200 208" height="200"><g class="content"><g class="left"><path class="shape black" d="M29.347 0l44.48 56.983 26.65-10.068z"/><path class="shape white" d="M49.218 56.851l24.61.132L29.346 0z"/><path class="shape gray-light" d="M29.347 0L10.79 84.619 49.218 56.85z"/><path class="shape black" d="M0 84.224l10.791.395L29.347 0z"/><path class="shape black" d="M0 84.224l13.292 14.344-2.5-13.95zm49.218-27.373l15.529 48.955 9.08-48.823z"/><path class="shape black" d="M10.791 84.619l53.956 21.187-15.529-48.955zm2.501 13.949l51.455 7.238L10.791 84.62z"/><path class="shape gray-dark" d="M35.269 121.466l29.478-15.66-51.455-7.238z"/><path class="shape black" d="M64.747 105.806l35.73-58.89-26.65 10.067z"/><path class="shape gray-light" d="M13.292 98.568l10.133 34.61 11.844-11.712z"/><path class="shape gray-dark" d="M52.245 137.258l12.502-31.452-29.478 15.66z"/><path class="shape black" d="M23.425 133.179l28.82 4.08-16.976-15.793z"/><path class="shape white" d="M23.425 133.179l14.739 22.24 14.081-18.16z"/><path class="shape gray-dark" d="M75.67 156.34l-10.923-50.534-12.502 31.452z"/><path class="shape black" d="M75.67 156.34l24.74 1.185-35.663-51.719z"/><path class="shape white" d="M100.41 157.525l.066-110.61-35.729 58.891zm-53.166 10.923l5.001-31.19-14.081 18.161zm0 0L75.67 156.34l-23.425-19.082z"/><path class="shape gray-light" d="M47.244 168.448l20.53 1.447 7.896-13.555z"/><path class="shape gray-dark" d="M47.244 168.448l11.976 13.686 8.554-12.239zM75.67 156.34l24.74 27.11v-25.925z"/><path class="shape white" d="M67.774 169.895l32.637 13.555-24.741-27.11z"/><path class="shape red" d="M100.41 183.45l-10.922 18.16 10.923-9.08z"/><path class="shape white" d="M67.774 169.895l21.714 31.716 10.923-18.161z"/><path class="shape white" d="M59.22 182.134l30.268 19.477-21.714-31.716z"/><path class="shape gray-light" d="M89.488 201.61h10.923v-8.528z"/></g><g class="right"><path class="shape black" d="M171.412.017L126.932 57l-26.65-10.068z"/><path class="shape white" d="M151.54 56.868L126.933 57 171.412.017z"/><path class="shape gray-light" d="M171.412.017l18.556 84.619-38.427-27.768z"/><path class="shape black" d="M200.76 84.24l-10.792.396L171.412.017z"/><path class="shape black" d="M200.76 84.24l-13.292 14.345 2.5-13.95zm-49.22-27.372l-15.528 48.955L126.932 57z"/><path class="shape black" d="M189.968 84.636l-53.956 21.187 15.529-48.955zm-2.5 13.949l-51.456 7.238 53.956-21.187z"/><path class="shape gray-dark" d="M165.49 121.483l-29.478-15.66 51.456-7.238z"/><path class="shape black" d="M136.012 105.823l-35.73-58.89L126.933 57z"/><path class="shape gray-light" d="M187.468 98.585l-10.134 34.61-11.844-11.712z"/><path class="shape gray-dark" d="M148.514 137.275l-12.502-31.452 29.478 15.66z"/><path class="shape black" d="M177.334 133.196l-28.82 4.08 16.976-15.793z"/><path class="shape white" d="M177.334 133.196l-14.739 22.24-14.08-18.16z"/><path class="shape gray-dark" d="M125.09 156.357l10.922-50.534 12.502 31.452z"/><path class="shape black" d="M125.09 156.357l-24.741 1.185 35.663-51.719z"/><path class="shape white" d="M100.349 157.542l-.066-110.61 35.73 58.891zm53.166 10.923l-5-31.19 14.08 18.161zm0 0l-28.426-12.108 23.425-19.082z"/><path class="shape gray-light" d="M153.515 168.465l-20.53 1.447-7.896-13.555z"/><path class="shape gray-dark" d="M153.515 168.465l-11.976 13.686-8.554-12.239zm-28.425-12.108l-24.741 27.11v-25.925z"/><path class="shape white" d="M132.985 169.912l-32.636 13.555 24.74-27.11z"/><path class="shape red" d="M100.349 183.467l10.922 18.16-10.922-9.08z"/><path class="shape white" d="M132.985 169.912l-21.714 31.716-10.922-18.161z"/><path class="shape white" d="M141.54 182.15l-30.269 19.478 21.714-31.716z"/><path class="shape gray-light" d="M111.271 201.628H100.35v-8.53z"/></g></g></svg>