<svg xmlns="http://www.w3.org/2000/svg" viewBox="0 0 200 208" height="200"><filter id="a" color-interpolation-filters="sRGB"><feComponentTransfer><feFuncA type="table" tableValues="0 0.5 1 1"/></feComponentTransfer></filter><g filter="url(#a)" transform="translate(-3.122 -2.384)" stroke="#000" fill="none" stroke-width=".104"><g class="left"><path d="M32.468 2.384L76.95 59.367l26.649-10.068z"/><path d="M52.34 59.235l24.609.132-44.48-56.983zM32.468 2.384L13.913 87.002 52.34 59.235z"/><path d="M3.122 86.608l10.79.394L32.469 2.384z"/><path d="M3.122 86.608l13.291 14.344-2.5-13.95zM52.34 59.235l15.529 48.955 9.08-48.823zM13.913 87.002l53.956 21.188-15.53-48.955z"/><path d="M16.413 100.952l51.456 7.238-53.956-21.188z"/><path d="M38.39 123.85l29.479-15.66-51.456-7.238zm29.479-15.66l35.729-58.89-26.649 10.067z"/><path d="M16.413 100.952l10.133 34.61L38.39 123.85zm38.954 38.69l12.502-31.452-29.479 15.66zm-28.821-4.079l28.82 4.08L38.39 123.85zm0 0l14.74 22.24 14.08-18.16zm52.245 23.161L67.87 108.19l-12.502 31.452z"/><path d="M78.791 158.724l24.741 1.185L67.87 108.19z"/><path d="M103.532 159.909l.066-110.61-35.73 58.891zm-53.166 10.922l5-31.189-14.08 18.161zm0 0l28.425-12.107-23.424-19.082zm0 0l20.53 1.448 7.895-13.555zm0 0l11.975 13.687 8.554-12.239zm28.425-12.107l24.741 27.11v-25.925z"/><path d="M70.895 172.279l32.637 13.555-24.74-27.11zm32.637 13.555l-10.923 18.16 10.863-7.42z"/><path d="M70.895 172.279l21.714 31.716 10.923-18.161z"/><path d="M62.341 184.518l30.268 19.477-21.714-31.716zm30.269 19.477h10.922v-7.45z"/></g><g class="right"><path d="M174.534 2.401l-44.48 56.983-26.65-10.068z"/><path d="M154.662 59.252l-24.609.132L174.534 2.4z"/><path d="M174.534 2.401L193.09 87.02l-38.428-27.768zm29.346 84.224l-10.79.395L174.534 2.4z"/><path d="M203.88 86.625l-13.29 14.344 2.5-13.95zm-49.218-27.373l-15.528 48.955-9.08-48.823z"/><path d="M193.09 87.02l-53.956 21.187 15.528-48.955zm-2.5 13.95l-51.456 7.237L193.09 87.02z"/><path d="M168.612 123.867l-29.478-15.66 51.455-7.238zm-29.478-15.66l-35.73-58.89 26.65 10.067zm51.456-7.237l-10.134 34.61-11.844-11.713z"/><path d="M151.636 139.66l-12.502-31.453 29.478 15.66zm28.82-4.08l-28.82 4.08 16.976-15.793z"/><path d="M180.456 135.58l-14.74 22.24-14.08-18.16zm-52.246 23.161l10.924-50.534 12.502 31.452z"/><path d="M128.21 158.741l-24.74 1.185 35.664-51.719zm-24.74 1.185l-.066-110.61 35.73 58.891zm53.166 10.922l-5-31.189 14.08 18.161z"/><path d="M156.636 170.848l-28.425-12.107 23.425-19.082zm0 0l-20.53 1.448-7.895-13.555zm0 0l-11.975 13.687-8.554-12.239zm-28.426-12.107l-24.74 27.11v-25.925z"/><path d="M136.107 172.296l-32.637 13.555 24.74-27.11z"/><path d="M103.47 185.85l10.923 18.162-10.923-7.42z"/><path d="M136.107 172.296l-21.714 31.716-10.923-18.161zm8.553 12.239l-30.267 19.477 21.714-31.716zm-30.267 19.477H103.47v-7.45z"/></g></g></svg>