<svg data-name="Layer 1" xmlns="http://www.w3.org/2000/svg" width="100.57" height="116.73" viewBox="0 0 100.57 116.73"><title>globe</title><path d="M47.07 2.09c-.83 1.5-1.29 2.57-.34 3.68a1.34 1.34 0 0 1-1.32 2.17c-1-.09-7.13 1.05-8.86 3.91-.25.41-1 1.66.54 3.94l.06.09.05.1c.12.23.26.47.4.71 1.33 2.24 2.36 4.88-1.18 8.28a3.15 3.15 0 0 1 1.28 1.32c.83 1.67-.16 3.47-1.12 5.22-.57 1-1.36 2.48-1.11 3.05a1.35 1.35 0 0 0 .71.54 30.67 30.67 0 0 1 11.58-8.36c-3.52-1.95-3.8-3.08-3.92-3.56a2 2 0 0 1 .36-1.7c2.06-2.81 4.77-1.67 6.56-.92 1 .44 2 .85 2.7.58a3.59 3.59 0 0 0 1.49-2 1.34 1.34 0 0 1 2.57.46c.05 1.29.61 1.56 1.08 1.65a3.25 3.25 0 0 0 3.09-1.46 1.34 1.34 0 0 1 2.39-.13 6.86 6.86 0 0 1 .8 5.79c-1.32 3.68-6.14 5.57-10.81 7.39a48.69 48.69 0 0 0-4.92 2.12c-3.23 1.72-13.84 7.93-14.66 15.51-.37 3.44 1.38 6.84 5.22 10.12 5.3 4.53 8.43 2.12 12.38-.93 3-2.33 6.46-5 11-3.87 3.14.76 5.24 4 7.47 7.34a29 29 0 0 0 4.85 6.14c5 4.2 8.75 5.19 11.3 2.93 6.58-5.83 4.68-29.12.86-37.21a12.69 12.69 0 0 1-11.35 2.11c-5.21-1.48-9-5.71-10-8.94a1.59 1.59 0 0 1 .33-1.47c.76-.85 2.11-.79 5.51-.44.56.06 1.27.13 1.74.16a3.94 3.94 0 0 1 2.6-2.1c1.65-.29 2.95.92 4.08 2a5.42 5.42 0 0 0 1.62 1.23s1-.37 2.14-5.39a.26.26 0 0 0 0-.26c-.88-1.26-5.88-1.85-8-2.1a16.67 16.67 0 0 1-2.7-.43 1.34 1.34 0 0 1-.6-2.14l.07-.07a1.34 1.34 0 0 1 1.19-.37c3.52.67 5.82-1.35 7.86-3.14a14.8 14.8 0 0 1 2.43-1.85 47 47 0 0 0-30-11.74H53.3a47.56 47.56 0 0 0-5.44.32 5 5 0 0 1-.79 1.72z" fill="#66cdcc"/><path d="M12.5 8.61c.25-.26.49-.54.74-.8s.75-.74 1.14-1.1L10.67 3a1.34 1.34 0 0 0-1.89 1.89zM93.62 86c-.3.32-.6.64-.91 1s-.65.62-1 .93l3.79 3.79a1.34 1.34 0 1 0 1.89-1.89zM52.96 99.82h-.62a52.94 52.94 0 0 1-36.4-90.8 53.69 53.69 0 0 1 5.8-4.91 1.34 1.34 0 0 1 1.58 2.16 50.87 50.87 0 0 0-5.51 4.67 50.271 50.271 0 0 0 70.28 71.9 50.82 50.82 0 0 0 5.21-6 1.34 1.34 0 0 1 2.14 1.6 53.57 53.57 0 0 1-5.49 6.27 52.59 52.59 0 0 1-36.99 15.11zm.78 3.5a10 10 0 0 0-9.54 7.09h19.07a10 10 0 0 0-9.53-7.09zm19.76 9.76H33.91a1.825 1.825 0 0 0 0 3.65H73.5a1.825 1.825 0 0 0 0-3.65z" fill="#3EAE68"/><g fill="#66cdcc"><path d="M87.5 14.69l-.48-.48h-.05c-.62-.56-1-.49-3.19 1.44a25.21 25.21 0 0 1-2.73 2.17c2.45.5 4.43 1.23 5.36 2.55a2.92 2.92 0 0 1 .46 2.4c-1.1 4.69-2.25 6.82-4 7.34s-3.09-.8-4.21-1.85a4.91 4.91 0 0 0-1.79-1.3 2.53 2.53 0 0 0-1 1.32c-.51 1-1.47.91-4 .65-.66-.07-1.66-.17-2.46-.21a13.49 13.49 0 0 0 7.62 5.83 10.34 10.34 0 0 0 10.12-2.58 1.34 1.34 0 0 1 2 .26c4.87 7.39 7.53 34.78-.6 42a7.12 7.12 0 0 1-4.83 1.85c-2.53 0-5.8-1.21-10-4.75a30.84 30.84 0 0 1-5.35-6.71c-1.93-2.93-3.75-5.7-5.87-6.21-3.32-.8-6 1.24-8.76 3.39-3.92 3-8.79 6.78-15.75.84-4.55-3.88-6.62-8.07-6.14-12.44.94-8.63 11.54-15.17 16.06-17.57a50.2 50.2 0 0 1 5.21-2.25c3.92-1.53 8.35-3.27 9.26-5.8a3.22 3.22 0 0 0 .1-1.74 6 6 0 0 1-4.35 1.07 3.78 3.78 0 0 1-2.22-1.24 4.17 4.17 0 0 1-1.42 1c-1.68.69-3.31 0-4.75-.59-1.78-.75-2.47-.9-3.11-.28a19.91 19.91 0 0 0 5.16 3l.12.06a1.34 1.34 0 0 1-.28 2.5c-8.57 2.08-13.87 9.08-13.93 9.15a1.34 1.34 0 0 1-1.41.49A4.45 4.45 0 0 1 33 35.67c-.77-1.78.29-3.7 1.23-5.4.48-.87 1.28-2.32 1.07-2.74 0 0-.23-.43-1.81-.66a1.34 1.34 0 0 1-.59-2.4c4.31-3.12 3.42-4.62 2.39-6.36-.17-.28-.33-.55-.46-.82-2.19-3.29-1.35-5.75-.26-7.23 1.95-2.65 6.24-4.07 9.06-4.54a6.69 6.69 0 0 1 1.1-4.66 47 47 0 0 0-9.67 2.84 77.26 77.26 0 0 0-8.25 10.55c-3.21 4.61-6 8.62-8.89 10.22a1.36 1.36 0 0 1-.9.35 1.39 1.39 0 0 1-.89-.35 2.75 2.75 0 0 1-1.18-1.6c-.46-1.7.73-3.65 1.89-5.53l.29-.48a47.36 47.36 0 0 0-7.67 48.46 1.27 1.27 0 0 1 .2.14c4.09 4.25 13.78 9.92 19.25 10.47h.41c8.34 1 9.18 7.43 9.8 12.11a15.69 15.69 0 0 0 1.08 4.77 47.3 47.3 0 0 0 47.3-78.12z"/><path d="M36.44 88.35c-.62-4.72-1.21-9.18-7.82-9.85h-.27c-4.52-.56-11.11-3.88-16-7.4a47.66 47.66 0 0 0 6.66 8.87 47 47 0 0 0 18 11.79c-.26-1.08-.41-2.23-.57-3.41z"/></g><path d="M24.62 12.61c1.31-1.89 2.72-3.91 4.21-5.85a47.69 47.69 0 0 0-8.21 6.27l-.1.1a1.38 1.38 0 0 1 .16.27c.69 1.52-.41 3.32-1.58 5.23a20 20 0 0 0-1.47 2.71c2.12-1.73 4.5-5.11 6.99-8.73z" fill="#66cdcc"/></svg>