<svg data-name="Layer 1" xmlns="http://www.w3.org/2000/svg" width="113.93" height="113.94" viewBox="0 0 113.93 113.94"><title>pen</title><path d="M109.34 4.59a15.67 15.67 0 0 0-22.17 0L76.8 14.96l13.68 13.68a1.34 1.34 0 1 1-1.89 1.89L74.93 16.85 28.27 63.51l13.66 13.68a1.34 1.34 0 1 1-1.89 1.89L26.36 65.4 10.93 80.83a15.69 15.69 0 0 0-3.06 17.79l-3.61 3.61a1.34 1.34 0 0 0 0 1.89l1.83 1.83-5.71 5.71a1.34 1.34 0 1 0 1.89 1.89l5.71-5.71 1.83 1.83a1.33 1.33 0 0 0 1.89 0l3.61-3.61A15.69 15.69 0 0 0 33.1 103l64-64 .94.94a10.33 10.33 0 0 1 0 14.61L80.58 72.01a4.89 4.89 0 1 0 4.93-1.15l14.42-14.4a13 13 0 0 0 0-18.39l-.94-.94 10.37-10.37a15.69 15.69 0 0 0-.02-22.17z" fill="#3EAE68"/></svg>