<svg data-name="Layer 1" xmlns="http://www.w3.org/2000/svg" width="106.77" height="106.77" viewBox="0 0 106.77 106.77"><title>pencil and ruler</title><path d="M30.32 55.5l-5.28 5.28 4.68 4.68a1.34 1.34 0 0 1-1.89 1.89l-4.68-4.68-5.74 5.74 7.24 7.24a1.34 1.34 0 0 1-1.89 1.89l-7.24-7.24L.39 85.43a1.33 1.33 0 0 0 0 1.89l19.06 19.06a1.34 1.34 0 0 0 1.89 0l29.93-29.93zm39.17-23.35a1.33 1.33 0 0 1-.94-.39l-7.24-7.24-5.12 5.12 20.95 20.95 29.24-29.24a1.33 1.33 0 0 0 0-1.89L87.32.4a1.34 1.34 0 0 0-1.89 0l-7 7 4.68 4.68a1.34 1.34 0 0 1-1.89 1.89l-4.61-4.72-5.78 5.76 4.68 4.68a1.34 1.34 0 0 1-1.89 1.89l-4.68-4.68-5.74 5.74 7.24 7.24a1.34 1.34 0 0 1-.95 2.27z" fill="#66cdcc"/><circle cx="18.91" cy="87.86" r="3.56" fill="#fff"/><path d="M100.15 77.28l-1.89-1.89a6.08 6.08 0 0 1-1.71 3.37L84.01 91.29a1.252 1.252 0 0 1-1.77-1.77l12.53-12.51a3.59 3.59 0 0 0 .17-4.92l-6.85-6.85-.09-.07-50.25-50.25-.17-.17a2.09 2.09 0 0 0-.27-.21 1.32 1.32 0 0 0-.55-.43L2.52.11A1.34 1.34 0 0 0 .78 1.85l14 34.28a1.31 1.31 0 0 0 .37.49 2.09 2.09 0 0 0 .23.3l14.37 14.37 42.92 42.92.09.07 5.18 5.18a15.694 15.694 0 0 0 22.21-22.18zM69.97 57.01a1.25 1.25 0 0 1-1.77 0l-33-33a7.54 7.54 0 0 0-10.59-.16l-.06.06-.06.06a7.54 7.54 0 0 0 .16 10.59l9.91 9.91 11.6 11.6a1.252 1.252 0 1 1-1.77 1.77L20.91 34.33a4.29 4.29 0 0 0-4.38-1l-5.92-14.59 8.83-8.85 14.56 6a4.17 4.17 0 0 0 1 4.33l35 35a1.25 1.25 0 0 1-.03 1.79z" fill="#3EAE68"/></svg>