<svg data-name="Layer 1" xmlns="http://www.w3.org/2000/svg" width="119.81" height="98.66" viewBox="0 0 119.81 98.66"><title>brush painting</title><path d="M116.1 89.06a1 1 0 0 0 .27-.06h.08a1.24 1.24 0 0 0 .23-.14h.06a1.32 1.32 0 0 0 .23-.26 1.08 1.08 0 0 0 0-1.36c-18.85-18.57-30-31.3-43.16-40.56-.28.1-6.53 2.48-8.68 11.22a1.34 1.34 0 0 1-1.3 1 1.35 1.35 0 0 1-.32 0 1.34 1.34 0 0 1-1-1.62c1.83-7.41 6.29-10.89 8.73-12.29a18 18 0 0 0-5-2.08l-.39-.09-.55-.09-.51-.07h-1.82a9.35 9.35 0 0 0-7.22 4.38l-.2.29a9.35 9.35 0 0 0-1.38 8.33c.91 2.79 3.17 5.42 6.72 7.8 13.74 9.24 29.91 14.81 54.83 25.7a.82.82 0 0 0 .31.06h.07z" fill="#3EAE68"/><path d="M62.68 84.45h35.51l-1.23-.52c-4.68-2-9-3.77-13-5.51h-.86a1.32 1.32 0 0 1-1.25-.93 144.62 144.62 0 0 1-22.53-12 20.3 20.3 0 0 1-6.91-7.21 19.84 19.84 0 0 1-3.71 1.12 18.66 18.66 0 0 1-2.26.3h-1.27a20.68 20.68 0 0 1-13.7-5.57C24.1 47.57 22.1 38.33 20.1 29.4c-.46-2.13-.89-4.14-1.4-6.07a4 4 0 0 1 3.83-5 4 4 0 0 1 2.5.89c2 1.63 5.36 2.45 10 2.45.86 0 1.77 0 2.72-.08 1.63-.1 3.55-.2 5.46-.2 4.83 0 10.94.58 15.42 5.09 3 3.06 4.81 7.45 5.36 13.3a19.49 19.49 0 0 1 10.16 3.8c10.37 7.06 19.06 15.87 31.09 28.06 3.51 3.56 7.46 7.55 11.74 11.79a6.13 6.13 0 0 0 2.83-5.16V6.13a6.14 6.14 0 0 0-6.14-6.14H6.1A6.14 6.14 0 0 0 0 6.13v72.18a6.14 6.14 0 0 0 6.14 6.14h51l-9.52 11.77a1.5 1.5 0 1 0 2.33 1.89l8.46-10.46v9.48a1.5 1.5 0 0 0 3 0v-9.52l8.46 10.52a1.5 1.5 0 0 0 2.33-1.89zm51.2-10.09v.12a4 4 0 0 1-.66 1.48H113l-.23.26a1.34 1.34 0 0 1-1.94-1.84 1.38 1.38 0 0 0 .38-.95 1.34 1.34 0 1 1 2.67 0v.93zm0-6.93a1.34 1.34 0 0 1-2.67 0v-4a1.34 1.34 0 1 1 2.67 0v4zm0-10a1.34 1.34 0 0 1-2.67 0v-4a1.34 1.34 0 1 1 2.67 0v4zm0-10a1.34 1.34 0 0 1-2.67 0v-4a1.34 1.34 0 1 1 2.67 0v4zm0-10a1.34 1.34 0 0 1-2.67 0v-4a1.34 1.34 0 1 1 2.67 0v4zm0-10a1.34 1.34 0 0 1-2.67 0v-4a1.34 1.34 0 1 1 2.67 0v4zm0-14v4a1.34 1.34 0 0 1-2.67 0v-4a1.34 1.34 0 1 1 2.67 0zm-8.06-7.4h5.97l.2.14h.48l.06.08a1.34 1.34 0 0 1-2.12 1.63 1.38 1.38 0 0 0-1.1-.54h-4a1.34 1.34 0 0 1 .51-1.31zm-10 0h4a1.34 1.34 0 1 1 0 2.67h-4a1.34 1.34 0 0 1 0-2.67zm-10 0h4a1.34 1.34 0 1 1 0 2.67h-4a1.34 1.34 0 0 1 0-2.67zm-10 0h4a1.34 1.34 0 1 1 0 2.67h-4a1.34 1.34 0 0 1 0-2.67zm-10 0h4a1.34 1.34 0 1 1 0 2.67h-4a1.34 1.34 0 0 1 0-2.67zm-10 0h4a1.34 1.34 0 1 1 0 2.67h-4a1.34 1.34 0 0 1 0-2.67zm-10 0h4a1.34 1.34 0 1 1 0 2.67h-4a1.34 1.34 0 0 1 0-2.67zm-10 0h4a1.34 1.34 0 1 1 0 2.67h-4a1.34 1.34 0 0 1 0-2.67zm-10 0h4a1.34 1.34 0 1 1 0 2.67h-4a1.34 1.34 0 0 1 0-2.67zm-10 0h4a1.34 1.34 0 1 1 0 2.67h-4a1.34 1.34 0 0 1 0-2.67zm-9.89 7.85a1.34 1.34 0 0 1 2.67 0v4a1.34 1.34 0 1 1-2.67 0v-4zm0 10a1.34 1.34 0 0 1 2.67 0v4a1.34 1.34 0 1 1-2.67 0v-4zm0 10a1.34 1.34 0 0 1 2.67 0v4a1.34 1.34 0 1 1-2.67 0v-4zm0 10a1.34 1.34 0 0 1 2.67 0v4a1.34 1.34 0 1 1-2.67 0v-4zm0 10a1.34 1.34 0 0 1 2.67 0v4a1.34 1.34 0 1 1-2.67 0v-4zm0 10a1.34 1.34 0 0 1 2.67 0v4a1.34 1.34 0 1 1-2.67 0v-4zM9.24 77.3a1.34 1.34 0 0 1-1.88.15 4.08 4.08 0 0 1-.88-1v-.11h-.55v-.48a1.34 1.34 0 0 1 2.67 0v.48a1.39 1.39 0 0 0 .49 1.06 1.34 1.34 0 0 1 .15-.09zm.69-68.6a1.38 1.38 0 0 0-1.13.67 1.34 1.34 0 0 1-2.28-1.38h.4a4 4 0 0 1 2.4-1.28h.49a1.34 1.34 0 0 1 .12 2zm7.2 69.72h-4a1.34 1.34 0 1 1 0-2.67h4a1.34 1.34 0 0 1-.03 2.67zm10 0h-4a1.34 1.34 0 1 1 0-2.67h4a1.34 1.34 0 0 1-.03 2.67zm10 0h-4a1.34 1.34 0 1 1 0-2.67h4a1.34 1.34 0 0 1-.03 2.67zm10 0h-4a1.34 1.34 0 1 1 0-2.67h4a1.34 1.34 0 0 1-.03 2.67zm10 0h-4a1.34 1.34 0 1 1 0-2.67h4a1.34 1.34 0 0 1-.03 2.67zm16-2.67h4a1.34 1.34 0 0 1 0 2.67h-4a1.34 1.34 0 1 1-.03-2.67zm-11.34 1.38a1.34 1.34 0 0 1 1.34-1.34h4a1.34 1.34 0 0 1 0 2.67h-4a1.34 1.34 0 0 1-1.34-1.33z" fill="#66cdcc"/><path d="M53.28 45.68l.2-.3a12.08 12.08 0 0 1 7.85-5.37c-.49-5.17-2-9-4.6-11.6-.26-.26-.53-.5-.8-.73l-.22-.18q-.31-.25-.63-.48l-.24-.17c-.26-.18-.53-.35-.81-.51h-.07c-.3-.17-.61-.33-.93-.47l-.26-.11-.72-.3-.3-.11-.83-.27-.17-.05c-.34-.1-.68-.18-1-.26l-.27-.06-.81-.15-.34-.06-.86-.12h-.25l-1.13-.1h-3.03q-1.18 0-2.4.05h-.15l-2.58.13c-.77 0-1.51.07-2.23.08h-2.6c-.68 0-1.32-.09-1.94-.16l-.56-.08c-.42-.06-.84-.12-1.23-.2l-.63-.14c-.35-.08-.68-.16-1-.26l-.6-.19c-.31-.1-.61-.21-.9-.33l-.53-.22c-.3-.13-.57-.28-.85-.43l-.42-.23a10.21 10.21 0 0 1-1.06-.74 1.28 1.28 0 0 0-.34-.19h-.14a1 1 0 0 0-.51 0h-.13a1.29 1.29 0 0 0-.33.14 1.29 1.29 0 0 0-.55 1.41c.07.28.13.57.2.85.83.56 7.21 4.62 17.33 3.85 13.17-1 15.49 6.57 15.58 6.9a1.34 1.34 0 1 1-2.57.74c-.07-.22-1.94-5.79-12.81-5a32.08 32.08 0 0 1-16.71-3l.39 1.79c1.84 8.51 3.74 17.31 10.5 23.31l.15.13c.43.37.86.73 1.3 1.06.18.14.37.25.55.38s.63.45 1 .65.43.25.64.37.6.35.9.5l.68.32c.29.14.59.27.89.39l.7.25c.3.1.59.2.89.29l.72.18.9.19.72.11.92.09h2.12a15.9 15.9 0 0 0 1.93-.26 17.32 17.32 0 0 0 3.24-1 12 12 0 0 1 1.74-10.33z" fill="#3EAE68"/></svg>