<svg xmlns="http://www.w3.org/2000/svg" data-name="Layer 1" width="119.81" height="98.66" viewBox="0 0 119.81 98.66"><title>brush painting</title><path d="M62.68 84.45h35.51l-1.23-.52c-4.68-2-9-3.77-13-5.51h-.86a1.32 1.32 0 0 1-1.25-.93 144.62 144.62 0 0 1-22.53-12 20.3 20.3 0 0 1-6.91-7.21 19.84 19.84 0 0 1-3.71 1.12 18.66 18.66 0 0 1-2.26.3h-1.27a20.68 20.68 0 0 1-13.7-5.57C24.1 47.57 22.1 38.33 20.1 29.4c-.46-2.13-.89-4.14-1.4-6.07a4 4 0 0 1 3.83-5 4 4 0 0 1 2.5.89c2 1.63 5.36 2.45 10 2.45.86 0 1.77 0 2.72-.08 1.63-.1 3.55-.2 5.46-.2 4.83 0 10.94.58 15.42 5.09 3 3.06 4.81 7.45 5.36 13.3a19.49 19.49 0 0 1 10.16 3.8c10.37 7.06 19.06 15.87 31.09 28.06 3.51 3.56 7.46 7.55 11.74 11.79a6.13 6.13 0 0 0 2.83-5.16V6.13a6.14 6.14 0 0 0-6.14-6.14H6.1A6.14 6.14 0 0 0 0 6.13v72.18a6.14 6.14 0 0 0 6.14 6.14h51l-9.52 11.77a1.5 1.5 0 1 0 2.33 1.89l8.46-10.46v9.48a1.5 1.5 0 0 0 3 0v-9.52l8.46 10.52a1.5 1.5 0 0 0 2.33-1.89zm51.2-10.09v.12a4 4 0 0 1-.66 1.48H113l-.23.26a1.34 1.34 0 0 1-1.94-1.84 1.38 1.38 0 0 0 .38-.95 1.34 1.34 0 1 1 2.67 0v.93zm0-6.93a1.34 1.34 0 0 1-2.67 0v-4a1.34 1.34 0 1 1 2.67 0v4zm0-10a1.34 1.34 0 0 1-2.67 0v-4a1.34 1.34 0 1 1 2.67 0v4zm0-10a1.34 1.34 0 0 1-2.67 0v-4a1.34 1.34 0 1 1 2.67 0v4zm0-10a1.34 1.34 0 0 1-2.67 0v-4a1.34 1.34 0 1 1 2.67 0v4zm0-10a1.34 1.34 0 0 1-2.67 0v-4a1.34 1.34 0 1 1 2.67 0v4zm0-14v4a1.34 1.34 0 0 1-2.67 0v-4a1.34 1.34 0 1 1 2.67 0zm-8.06-7.4h5.97l.2.14h.48l.06.08a1.34 1.34 0 0 1-2.12 1.63 1.38 1.38 0 0 0-1.1-.54h-4a1.34 1.34 0 0 1 .51-1.31zm-10 0h4a1.34 1.34 0 1 1 0 2.67h-4a1.34 1.34 0 0 1 0-2.67zm-10 0h4a1.34 1.34 0 1 1 0 2.67h-4a1.34 1.34 0 0 1 0-2.67zm-10 0h4a1.34 1.34 0 1 1 0 2.67h-4a1.34 1.34 0 0 1 0-2.67zm-10 0h4a1.34 1.34 0 1 1 0 2.67h-4a1.34 1.34 0 0 1 0-2.67zm-10 0h4a1.34 1.34 0 1 1 0 2.67h-4a1.34 1.34 0 0 1 0-2.67zm-10 0h4a1.34 1.34 0 1 1 0 2.67h-4a1.34 1.34 0 0 1 0-2.67zm-10 0h4a1.34 1.34 0 1 1 0 2.67h-4a1.34 1.34 0 0 1 0-2.67zm-10 0h4a1.34 1.34 0 1 1 0 2.67h-4a1.34 1.34 0 0 1 0-2.67zm-10 0h4a1.34 1.34 0 1 1 0 2.67h-4a1.34 1.34 0 0 1 0-2.67zm-9.89 7.85a1.34 1.34 0 0 1 2.67 0v4a1.34 1.34 0 1 1-2.67 0v-4zm0 10a1.34 1.34 0 0 1 2.67 0v4a1.34 1.34 0 1 1-2.67 0v-4zm0 10a1.34 1.34 0 0 1 2.67 0v4a1.34 1.34 0 1 1-2.67 0v-4zm0 10a1.34 1.34 0 0 1 2.67 0v4a1.34 1.34 0 1 1-2.67 0v-4zm0 10a1.34 1.34 0 0 1 2.67 0v4a1.34 1.34 0 1 1-2.67 0v-4zm0 10a1.34 1.34 0 0 1 2.67 0v4a1.34 1.34 0 1 1-2.67 0v-4zM9.24 77.3a1.34 1.34 0 0 1-1.88.15 4.08 4.08 0 0 1-.88-1v-.11h-.55v-.48a1.34 1.34 0 0 1 2.67 0v.48a1.39 1.39 0 0 0 .49 1.06 1.34 1.34 0 0 1 .15-.09zm.69-68.6a1.38 1.38 0 0 0-1.13.67 1.34 1.34 0 0 1-2.28-1.38h.4a4 4 0 0 1 2.4-1.28h.49a1.34 1.34 0 0 1 .12 2zm7.2 69.72h-4a1.34 1.34 0 1 1 0-2.67h4a1.34 1.34 0 0 1-.03 2.67zm10 0h-4a1.34 1.34 0 1 1 0-2.67h4a1.34 1.34 0 0 1-.03 2.67zm10 0h-4a1.34 1.34 0 1 1 0-2.67h4a1.34 1.34 0 0 1-.03 2.67zm10 0h-4a1.34 1.34 0 1 1 0-2.67h4a1.34 1.34 0 0 1-.03 2.67zm10 0h-4a1.34 1.34 0 1 1 0-2.67h4a1.34 1.34 0 0 1-.03 2.67zm16-2.67h4a1.34 1.34 0 0 1 0 2.67h-4a1.34 1.34 0 1 1-.03-2.67zm-11.34 1.38a1.34 1.34 0 0 1 1.34-1.34h4a1.34 1.34 0 0 1 0 2.67h-4a1.34 1.34 0 0 1-1.34-1.33z" fill="#66cdcc"/></svg>