<?xml version="1.0" encoding="UTF-8" standalone="no"?>
<svg
   xmlns:dc="http://purl.org/dc/elements/1.1/"
   xmlns:cc="http://creativecommons.org/ns#"
   xmlns:rdf="http://www.w3.org/1999/02/22-rdf-syntax-ns#"
   xmlns:svg="http://www.w3.org/2000/svg"
   xmlns="http://www.w3.org/2000/svg"
   height="201.62801"
   width="200.758"
   version="1.1"
   id="svg2"
   viewBox="0 0 200.758 201.62801">
  <metadata
     id="metadata242">
    <rdf:RDF>
      <cc:Work
         rdf:about="">
        <dc:format>image/svg+xml</dc:format>
        <dc:type
           rdf:resource="http://purl.org/dc/dcmitype/StillImage" />
        <dc:title></dc:title>
      </cc:Work>
    </rdf:RDF>
  </metadata>
  <defs
     id="defs4">
    <linearGradient
       y2="1"
       x2="0"
       y1="0"
       x1="0"
       gradientUnits="userSpaceOnUse"
       id="g443">
      <stop
         id="stop7"
         offset="0"
         stop-color="#777" />
      <stop
         id="stop9"
         offset="0.65"
         stop-color="#fff" />
      <stop
         id="stop11"
         offset="1"
         stop-color="#777" />
    </linearGradient>
    <filter
       style="color-interpolation-filters:sRGB"
       id="polycleaner">
      <feComponentTransfer
         id="feComponentTransfer14">
        <feFuncA
           id="feFuncA16"
           tableValues="0 0.5 1 1"
           type="table" />
      </feComponentTransfer>
    </filter>
  </defs>
  <g
     transform="translate(-3.122,-2.384)"
     id="g18"
     class="content">
    <g
       id="g20"
       class="left">
      <g
         id="g22"
         class="shape">
        <path
           id="path24"
           d="M 32.468,2.384 76.95,59.367 103.599,49.299 Z"
           class="black" />
      </g>
      <g
         id="g26"
         class="shape">
        <path
           id="path28"
           d="M 52.34,59.235 76.949,59.367 32.469,2.384 Z"
           class="white" />
      </g>
      <g
         id="g30"
         class="shape">
        <path
           id="path32"
           d="M 32.468,2.384 13.913,87.002 52.34,59.235 Z"
           class="gray-light" />
      </g>
      <g
         id="g34"
         class="shape">
        <path
           id="path36"
           d="M 3.122,86.608 13.912,87.002 32.469,2.384 Z"
           class="black" />
      </g>
      <g
         id="g38"
         class="shape">
        <path
           id="path40"
           d="m 3.122,86.608 13.291,14.344 -2.5,-13.95 z"
           class="black" />
      </g>
      <g
         id="g42"
         class="shape">
        <path
           id="path44"
           d="m 52.34,59.235 15.529,48.955 9.08,-48.823 z"
           class="black" />
      </g>
      <g
         id="g46"
         class="shape">
        <path
           id="path48"
           d="M 13.913,87.002 67.869,108.19 52.339,59.235 Z"
           class="black" />
      </g>
      <g
         id="g50"
         class="shape">
        <path
           id="path52"
           d="M 16.413,100.952 67.869,108.19 13.913,87.002 Z"
           class="black" />
      </g>
      <g
         id="g54"
         class="shape">
        <path
           id="path56"
           d="M 38.39,123.85 67.869,108.19 16.413,100.952 Z"
           class="gray-dark" />
      </g>
      <g
         id="g58"
         class="shape">
        <path
           id="path60"
           d="M 67.869,108.19 103.598,49.3 76.949,59.367 Z"
           class="black" />
      </g>
      <g
         id="g62"
         class="shape">
        <path
           id="path64"
           d="M 16.413,100.952 26.546,135.562 38.39,123.85 Z"
           class="gray-light" />
      </g>
      <g
         id="g66"
         class="shape">
        <path
           id="path68"
           d="M 55.367,139.642 67.869,108.19 38.39,123.85 Z"
           class="gray-dark" />
      </g>
      <g
         id="g70"
         class="shape">
        <path
           id="path72"
           d="m 26.546,135.563 28.82,4.08 L 38.39,123.85 Z"
           class="black" />
      </g>
      <g
         id="g74"
         class="shape">
        <path
           id="path76"
           d="m 26.546,135.563 14.74,22.24 14.08,-18.16 z"
           class="white" />
      </g>
      <g
         id="g78"
         class="shape">
        <path
           id="path80"
           d="M 78.791,158.724 67.87,108.19 55.368,139.642 Z"
           class="gray-dark" />
      </g>
      <g
         id="g82"
         class="shape">
        <path
           id="path84"
           d="m 78.791,158.724 24.741,1.185 L 67.87,108.19 Z"
           class="black" />
      </g>
      <g
         id="g86"
         class="shape">
        <path
           id="path88"
           d="m 103.532,159.909 0.066,-110.61 -35.73,58.891 z"
           class="white" />
      </g>
      <g
         id="g90"
         class="shape">
        <path
           id="path92"
           d="m 50.366,170.831 5,-31.189 -14.08,18.161 z"
           class="white" />
      </g>
      <g
         id="g94"
         class="shape">
        <path
           id="path96"
           d="M 50.366,170.831 78.791,158.724 55.367,139.642 Z"
           class="white" />
      </g>
      <g
         id="g98"
         class="shape">
        <path
           id="path100"
           d="m 50.366,170.831 20.53,1.448 7.895,-13.555 z"
           class="gray-light" />
      </g>
      <g
         id="g102"
         class="shape">
        <path
           id="path104"
           d="m 50.366,170.831 11.975,13.687 8.554,-12.239 z"
           class="gray-dark" />
      </g>
      <g
         id="g106"
         class="shape">
        <path
           id="path108"
           d="m 78.791,158.724 24.741,27.11 0,-25.925 z"
           class="gray-dark" />
      </g>
      <g
         id="g110"
         class="shape">
        <path
           id="path112"
           d="m 70.895,172.279 32.637,13.555 -24.74,-27.11 z"
           class="white" />
      </g>
      <g
         id="g114"
         class="shape">
        <path
           id="path116"
           d="m 103.532,185.834 -10.923,18.16 10.86306,-7.4196 z"
           class="gray-light" />
      </g>
      <g
         id="g118"
         class="shape">
        <path
           id="path120"
           d="m 70.895,172.279 21.714,31.716 10.923,-18.161 z"
           class="white" />
      </g>
      <g
         id="g122"
         class="shape">
        <path
           id="path124"
           d="M 62.341,184.518 92.609,203.995 70.895,172.279 Z"
           class="white" />
      </g>
      <g
         id="g126"
         class="shape">
        <path
           id="path128"
           d="m 92.61,203.995 10.922,0 0,-7.45 z"
           class="white" />
      </g>
    </g>
    <g
       id="g130"
       class="right">
      <g
         id="g132"
         class="shape">
        <path
           id="path134"
           d="m 174.534,2.401 -44.48,56.983 -26.65,-10.068 z"
           class="black" />
      </g>
      <g
         id="g136"
         class="shape">
        <path
           id="path138"
           d="M 154.662,59.252 130.053,59.384 174.534,2.4 Z"
           class="white" />
      </g>
      <g
         id="g140"
         class="shape">
        <path
           id="path142"
           d="M 174.534,2.401 193.09,87.02 154.662,59.252 Z"
           class="gray-light" />
      </g>
      <g
         id="g144"
         class="shape">
        <path
           id="path146"
           d="M 203.88,86.625 193.09,87.02 174.534,2.4 Z"
           class="black" />
      </g>
      <g
         id="g148"
         class="shape">
        <path
           id="path150"
           d="m 203.88,86.625 -13.29,14.344 2.5,-13.95 z"
           class="black" />
      </g>
      <g
         id="g152"
         class="shape">
        <path
           id="path154"
           d="m 154.662,59.252 -15.528,48.955 -9.08,-48.823 z"
           class="black" />
      </g>
      <g
         id="g156"
         class="shape">
        <path
           id="path158"
           d="m 193.09,87.02 -53.956,21.187 15.528,-48.955 z"
           class="black" />
      </g>
      <g
         id="g160"
         class="shape">
        <path
           id="path162"
           d="M 190.59,100.97 139.134,108.207 193.09,87.02 Z"
           class="black" />
      </g>
      <g
         id="g164"
         class="shape">
        <path
           id="path166"
           d="m 168.612,123.867 -29.478,-15.66 51.455,-7.238 z"
           class="gray-dark" />
      </g>
      <g
         id="g168"
         class="shape">
        <path
           id="path170"
           d="m 139.134,108.207 -35.73,-58.89 26.65,10.067 z"
           class="black" />
      </g>
      <g
         id="g172"
         class="shape">
        <path
           id="path174"
           d="m 190.59,100.97 -10.134,34.61 -11.844,-11.713 z"
           class="gray-light" />
      </g>
      <g
         id="g176"
         class="shape">
        <path
           id="path178"
           d="m 151.636,139.66 -12.502,-31.453 29.478,15.66 z"
           class="gray-dark" />
      </g>
      <g
         id="g180"
         class="shape">
        <path
           id="path182"
           d="m 180.456,135.58 -28.82,4.08 16.976,-15.793 z"
           class="black" />
      </g>
      <g
         id="g184"
         class="shape">
        <path
           id="path186"
           d="m 180.456,135.58 -14.74,22.24 -14.08,-18.16 z"
           class="white" />
      </g>
      <g
         id="g188"
         class="shape">
        <path
           id="path190"
           d="m 128.21,158.741 10.924,-50.534 12.502,31.452 z"
           class="gray-dark" />
      </g>
      <g
         id="g192"
         class="shape">
        <path
           id="path194"
           d="m 128.21,158.741 -24.74,1.185 35.664,-51.719 z"
           class="black" />
      </g>
      <g
         id="g196"
         class="shape">
        <path
           id="path198"
           d="m 103.47,159.926 -0.066,-110.61 35.73,58.891 z"
           class="white" />
      </g>
      <g
         id="g200"
         class="shape">
        <path
           id="path202"
           d="m 156.636,170.848 -5,-31.189 14.08,18.161 z"
           class="white" />
      </g>
      <g
         id="g204"
         class="shape">
        <path
           id="path206"
           d="m 156.636,170.848 -28.425,-12.107 23.425,-19.082 z"
           class="white" />
      </g>
      <g
         id="g208"
         class="shape">
        <path
           id="path210"
           d="m 156.636,170.848 -20.53,1.448 -7.895,-13.555 z"
           class="gray-light" />
      </g>
      <g
         id="g212"
         class="shape">
        <path
           id="path214"
           d="m 156.636,170.848 -11.975,13.687 -8.554,-12.239 z"
           class="gray-dark" />
      </g>
      <g
         id="g216"
         class="shape">
        <path
           id="path218"
           d="m 128.21,158.741 -24.74,27.11 0,-25.925 z"
           class="gray-dark" />
      </g>
      <g
         id="g220"
         class="shape">
        <path
           id="path222"
           d="m 136.107,172.296 -32.637,13.555 24.74,-27.11 z"
           class="white" />
      </g>
      <g
         id="g224"
         class="shape">
        <path
           id="path226"
           d="m 103.47,185.85 10.923,18.162 -10.923,-7.4196 z"
           class="gray-light" />
      </g>
      <g
         id="g228"
         class="shape">
        <path
           id="path230"
           d="M 136.107,172.296 114.393,204.012 103.47,185.851 Z"
           class="white" />
      </g>
      <g
         id="g232"
         class="shape">
        <path
           id="path234"
           d="m 144.66,184.535 -30.267,19.477 21.714,-31.716 z"
           class="white" />
      </g>
      <g
         id="g236"
         class="shape">
        <path
           id="path238"
           d="m 114.393,204.012 -10.923,0 0,-7.45 z"
           class="white" />
      </g>
    </g>
  </g>
</svg>
