<?xml version="1.0" encoding="UTF-8" standalone="no"?>
<svg xmlns:rdf="http://www.w3.org/1999/02/22-rdf-syntax-ns#" xmlns="http://www.w3.org/2000/svg" height="201.63" width="200.76" version="1.1" xmlns:cc="http://creativecommons.org/ns#" xmlns:dc="http://purl.org/dc/elements/1.1/" viewBox="0 0 200.758 201.62801">
 <g transform="translate(-3.122,-2.384)" class="content">
  <g class="left">
   <g class="shape">
    <path class="black" d="m32.468 2.384 44.482 56.983 26.65-10.068z"/>
   </g>
   <g class="shape">
    <path class="white" d="m52.34 59.235 24.609 0.132-44.48-56.983z"/>
   </g>
   <g class="shape">
    <path class="gray-light" d="m32.468 2.384-18.555 84.618 38.427-27.767z"/>
   </g>
   <g class="shape">
    <path class="black" d="m3.122 86.608 10.79 0.394 18.557-84.618z"/>
   </g>
   <g class="shape">
    <path class="black" d="m3.122 86.608 13.291 14.344-2.5-13.95z"/>
   </g>
   <g class="shape">
    <path class="black" d="m52.34 59.235 15.529 48.955 9.08-48.823z"/>
   </g>
   <g class="shape">
    <path class="black" d="m13.913 87.002 53.956 21.188-15.53-48.955z"/>
   </g>
   <g class="shape">
    <path class="black" d="m16.413 100.95 51.456 7.24-53.956-21.188z"/>
   </g>
   <g class="shape">
    <path class="gray-dark" d="m38.39 123.85 29.479-15.66-51.456-7.24z"/>
   </g>
   <g class="shape">
    <path class="black" d="m67.869 108.19 35.731-58.89-26.651 10.067z"/>
   </g>
   <g class="shape">
    <path class="gray-light" d="m16.413 100.95 10.133 34.61 11.844-11.71z"/>
   </g>
   <g class="shape">
    <path class="gray-dark" d="m55.367 139.64 12.502-31.45-29.479 15.66z"/>
   </g>
   <g class="shape">
    <path class="black" d="m26.546 135.56 28.82 4.08l-16.976-15.79z"/>
   </g>
   <g class="shape">
    <path class="white" d="m26.546 135.56 14.74 22.24 14.08-18.16z"/>
   </g>
   <g class="shape">
    <path class="gray-dark" d="m78.791 158.72-10.921-50.53-12.502 31.45z"/>
   </g>
   <g class="shape">
    <path class="black" d="m78.791 158.72 24.741 1.185l-35.66-51.71z"/>
   </g>
   <g class="shape">
    <path class="white" d="m103.53 159.91 0.066-110.61-35.73 58.891z"/>
   </g>
   <g class="shape">
    <path class="white" d="m50.366 170.83 5-31.189-14.08 18.161z"/>
   </g>
   <g class="shape">
    <path class="white" d="m50.366 170.83 28.425-12.11-23.424-19.08z"/>
   </g>
   <g class="shape">
    <path class="gray-light" d="m50.366 170.83 20.53 1.448 7.895-13.555z"/>
   </g>
   <g class="shape">
    <path class="gray-dark" d="m50.366 170.83 11.975 13.687 8.554-12.239z"/>
   </g>
   <g class="shape">
    <path class="gray-dark" d="m78.791 158.72 24.741 27.11v-25.925z"/>
   </g>
   <g class="shape">
    <path class="white" d="m70.895 172.28 32.637 13.555-24.74-27.11z"/>
   </g>
   <g class="shape">
    <path class="gray-light" d="m103.53 185.83-10.923 18.16 10.863-7.4196z"/>
   </g>
   <g class="shape">
    <path class="white" d="m70.895 172.28 21.714 31.716 10.923-18.161z"/>
   </g>
   <g class="shape">
    <path class="white" d="m62.341 184.52 30.268 19.48-21.714-31.72z"/>
   </g>
   <g class="shape">
    <path class="white" d="m92.61 204h10.922v-7.45z"/>
   </g>
  </g>
  <g class="right">
   <g class="shape">
    <path class="black" d="m174.53 2.401-44.48 56.983-26.65-10.068z"/>
   </g>
   <g class="shape">
    <path class="white" d="m154.66 59.252-24.61 0.132 44.48-56.984z"/>
   </g>
   <g class="shape">
    <path class="gray-light" d="m174.53 2.401 18.56 84.619-38.43-27.768z"/>
   </g>
   <g class="shape">
    <path class="black" d="m203.88 86.625-10.79 0.395-18.56-84.62z"/>
   </g>
   <g class="shape">
    <path class="black" d="m203.88 86.625-13.29 14.344 2.5-13.95z"/>
   </g>
   <g class="shape">
    <path class="black" d="m154.66 59.252-15.528 48.955-9.08-48.823z"/>
   </g>
   <g class="shape">
    <path class="black" d="m193.09 87.02-53.956 21.187 15.528-48.955z"/>
   </g>
   <g class="shape">
    <path class="black" d="m190.59 100.97-51.46 7.24 53.96-21.19z"/>
   </g>
   <g class="shape">
    <path class="gray-dark" d="m168.61 123.87-29.478-15.66 51.455-7.238z"/>
   </g>
   <g class="shape">
    <path class="black" d="m139.13 108.21-35.73-58.89 26.65 10.067z"/>
   </g>
   <g class="shape">
    <path class="gray-light" d="m190.59 100.97-10.134 34.61-11.844-11.713z"/>
   </g>
   <g class="shape">
    <path class="gray-dark" d="m151.64 139.66-12.502-31.453 29.478 15.66z"/>
   </g>
   <g class="shape">
    <path class="black" d="m180.46 135.58-28.82 4.08 16.976-15.793z"/>
   </g>
   <g class="shape">
    <path class="white" d="m180.46 135.58-14.74 22.24-14.08-18.16z"/>
   </g>
   <g class="shape">
    <path class="gray-dark" d="m128.21 158.74 10.924-50.534 12.502 31.452z"/>
   </g>
   <g class="shape">
    <path class="black" d="m128.21 158.74-24.74 1.185 35.664-51.719z"/>
   </g>
   <g class="shape">
    <path class="white" d="m103.47 159.93-0.066-110.61 35.73 58.891z"/>
   </g>
   <g class="shape">
    <path class="white" d="m156.64 170.85-5-31.189 14.08 18.161z"/>
   </g>
   <g class="shape">
    <path class="white" d="m156.64 170.85-28.425-12.107 23.425-19.082z"/>
   </g>
   <g class="shape">
    <path class="gray-light" d="m156.64 170.85-20.53 1.448-7.895-13.555z"/>
   </g>
   <g class="shape">
    <path class="gray-dark" d="m156.64 170.85-11.975 13.687-8.554-12.239z"/>
   </g>
   <g class="shape">
    <path class="gray-dark" d="m128.21 158.74-24.74 27.11v-25.925z"/>
   </g>
   <g class="shape">
    <path class="white" d="m136.11 172.3-32.637 13.555 24.74-27.11z"/>
   </g>
   <g class="shape">
    <path class="gray-light" d="m103.47 185.85 10.923 18.162-10.923-7.4196z"/>
   </g>
   <g class="shape">
    <path class="white" d="m136.11 172.3-21.72 31.71-10.92-18.16z"/>
   </g>
   <g class="shape">
    <path class="white" d="m144.66 184.54-30.267 19.477 21.714-31.716z"/>
   </g>
   <g class="shape">
    <path class="white" d="m114.39 204.01h-10.923v-7.45z"/>
   </g>
  </g>
 </g>
</svg>
