<svg xmlns="http://www.w3.org/2000/svg" style="display:none;">

	<symbol id="arrow" width="50" height="25" viewBox="0 0 50 25"><path stroke="#AAAFAF" fill="transparent" stroke-width="2" d="M0 0l25 25L50 0"/></symbol>

	<symbol id="codepen" width="512" height="512" viewBox="0 0 512 512"><path d="M241.239 303.936c-15.322-10.357-30.742-20.569-46.062-30.93-2.03-1.373-3.43-1.472-5.502-.029l-38.871 26.154C181.966 319.905 244 361.317 244 361.317v-53.786c-.012-1.224-1.553-2.78-2.761-3.595zm-46.147-63.27c15.454-10.16 30.851-20.409 46.109-30.86 1.486-1.018 2.775-3.509 2.799-5.334v-51.706s-62.033 41.124-93.262 61.942c13.7 9.159 26.671 17.913 39.787 26.443 1.02.662 3.396.284 4.567-.485zm74.746-31.312a4521.517 4521.517 0 0 0 47.627 31.815c.916.604 2.92.602 3.839 0l39.751-26.467L268 152.484v53.35c.01 1.201.805 2.821 1.838 3.52zm-11.729 21.015c-1.21-.802-3.611-.528-4.743.168-4.817 2.962-9.463 6.203-14.164 9.355-8.248 5.53-25.356 17.023-25.356 17.023l38.842 25.865c1.748 1.157 4.436 1.22 6.26.111l39.014-25.993c.001 0-34.079-22.701-39.853-26.529zM141 237.116v39.609l29.622-19.838z"/><path d="M256 32C132.288 32 32 132.288 32 256s100.288 224 224 224 224-100.288 224-224S379.712 32 256 32zm139 265.006c0 5.785-2.652 9.868-7.511 13.094a38019.909 38019.909 0 0 0-123.286 82.188c-5.854 3.918-11.174 3.754-16.984-.137-40.783-27.314-81.719-54.546-122.625-81.676-5.11-3.389-7.594-7.557-7.594-13.73v-79.729c0-6.141 2.521-10.332 7.624-13.716 40.906-27.13 81.939-54.363 122.724-81.676 5.818-3.896 11.094-4.007 16.938-.095a41090.004 41090.004 0 0 0 123.261 82.195c4.678 3.106 7.453 6.943 7.453 12.66v80.622z"/><path d="M316.247 273.234a3826.352 3826.352 0 0 1-45.386 30.332c-2.412 1.588-2.888 3.318-2.861 6.189v51.346l93.039-62.004-38.527-25.882c-2.345-1.604-3.93-1.567-6.265.019zM370 276.676V237.06l-29.59 19.873z"/></symbol>

	<symbol id="contact" width="512" height="512" viewBox="0 0 512 512"><path fill="#002F2F" d="M64 128v256h384V128H64zm192 139.9L93.2 144h325.6L256 267.9zM80 368V154.1l115.1 87.6L127 319l2 2 78.9-69.6L256 288l48.1-36.6L383 321l2-2-68.1-77.4L432 154.1V368H80z"/></symbol>

	<symbol id="email" width="512" height="512" viewBox="0 0 512 512"><path d="M448 384V141.8l-131.1 99.8L385 319l-2 2-78.9-69.6L256 288l-48.1-36.6L129 321l-2-2 68-77.4L64 142v242z"/><path d="M439.7 128H72l184 139.9z"/></symbol>

	<symbol id="github" width="512" height="512" viewBox="0 0 512 512"><path d="M256 32C132.3 32 32 134.9 32 261.7c0 101.5 64.2 187.5 153.2 217.9 1.4.3 2.6.4 3.8.4 8.3 0 11.5-6.1 11.5-11.4 0-5.5-.2-19.9-.3-39.1-8.4 1.9-15.9 2.7-22.6 2.7-43.1 0-52.9-33.5-52.9-33.5-10.2-26.5-24.9-33.6-24.9-33.6-19.5-13.7-.1-14.1 1.4-14.1h.1c22.5 2 34.3 23.8 34.3 23.8 11.2 19.6 26.2 25.1 39.6 25.1 10.5 0 20-3.4 25.6-6 2-14.8 7.8-24.9 14.2-30.7-49.7-5.8-102-25.5-102-113.5 0-25.1 8.7-45.6 23-61.6-2.3-5.8-10-29.2 2.2-60.8 0 0 1.6-.5 5-.5 8.1 0 26.4 3.1 56.6 24.1 17.9-5.1 37-7.6 56.1-7.7 19 .1 38.2 2.6 56.1 7.7 30.2-21 48.5-24.1 56.6-24.1 3.4 0 5 .5 5 .5 12.2 31.6 4.5 55 2.2 60.8 14.3 16.1 23 36.6 23 61.6 0 88.2-52.4 107.6-102.3 113.3 8 7.1 15.2 21.1 15.2 42.5 0 30.7-.3 55.5-.3 63 0 5.4 3.1 11.5 11.4 11.5 1.2 0 2.6-.1 4-.4C415.9 449.2 480 363.1 480 261.7 480 134.9 379.7 32 256 32z"/></symbol>

	<symbol id="home" width="512" height="512" viewBox="0 0 512 512"><g fill="#002F2F"><path d="M256 112L96 240v208h112V320h96v128h112V240L256 112zm144 320h-80V304H192v128h-80V247.69l144-115.2 144 115.2V432z"/><path d="M256 64l-96 76.8V96H96v95.999l-32 25.499 11.51 11.384L256 84.49l180.49 144.393L448 217.498 256 64zm-112 89.599l-32 25.6V112h32v41.599z"/></g></symbol>

	<symbol id="input" width="100%" height="100%" viewBox="0 0 404 77" preserveAspectRatio="none"><path d="m0,0l404,0l0,77l-404,0l0,-77z"/></symbol>

	<symbol id="link" width="512" height="512" viewBox="0 0 512 512"><path d="M256.5 208h-.5.5zm112-48H320s26 17 31.6 48h16.9c17.6 0 31.5 13.9 31.5 31.5v32c0 17.6-13.9 32.5-31.5 32.5h-112c-17.6 0-32.5-14.9-32.5-32.5V240h-48v31.5c0 11.5 2.5 22.5 6.9 32.5 12.6 28.2 40.9 48 73.6 48h112c44.2 0 79.5-36.3 79.5-80.5v-32c0-44.2-35.3-79.5-79.5-79.5z"/><path d="M329.6 208c-12.1-28.3-40.1-48-73.1-48h-112c-44.2 0-80.5 35.3-80.5 79.5v32c0 44.2 36.3 80.5 80.5 80.5H192s-25.8-17-32.1-48h-15.4c-17.6 0-32.5-14.9-32.5-32.5v-32c0-17.6 14.9-31.5 32.5-31.5h112c17.6 0 31.5 13.9 31.5 31.5V272h48v-32.5c0-11.2-2.3-21.9-6.4-31.5z"/></symbol>

	<symbol id="skills" width="512" height="512" viewBox="0 0 512 512"><path d="M202.4 201.7zm160.9 162.2c-12.9-4.6-31.4-6.2-43.2-8.8-6.8-1.5-16.7-5.3-20-9.2-3.3-4-1.3-40.9-1.3-40.9s6.1-9.6 9.4-18 6.9-31.4 6.9-31.4 6.8 0 9.2-11.9c2.6-13 6.6-18.4 6.1-28.1-.5-9-5.2-9.5-5.7-9.5 0 0 4.9-13.6 5.6-42.4C331.1 129.6 305 96 256 96s-75 33.5-74.3 67.6c.6 28.7 5.6 42.4 5.6 42.4-.5 0-5.2.5-5.7 9.5-.5 9.7 3.6 14.9 6.1 27.9 2.4 11.9 9.2 12 9.2 12s3.6 23.1 6.9 31.5c3.3 8.5 9.4 18 9.4 18s2 36.9-1.3 40.9-13.2 7.7-20 9.2c-11.9 2.6-30.3 4.3-43.2 8.9C135.8 368.5 96 384 96 416h320c0-32-39.8-47.5-52.7-52.1zM256 400H118.7c2-3 4.7-5.1 8.2-7.6 7-5.1 16.1-9.8 27.1-13.6 6.8-2.4 16.7-4 25.4-5.3 5.7-.9 11.1-1.7 15.9-2.8 3.4-.8 20.8-5 28.8-14.6 4.5-5.4 5.8-12.7 5.6-32.3-.1-10-.6-19.3-.6-19.7l-.2-4.2-2.3-3.5c-1.5-2.3-5.8-9.5-8-15.3-1.8-4.7-4.6-19.2-6-28.1 0 0 .4 1-.5-3.7s-8.4-4.3-9.4-8c-.9-3.6-1.8-6.9-4.3-18.2-2.5-11.3 2.8-11.2 3.9-16.2.6-3.1 0-5.7 0-5.8-.3-1-4.1-13.4-4.7-37.7-.3-13.2 4.6-25.6 13.8-34.9 10.6-10.8 26-16.5 44.5-16.5 19 0 34 5.7 44.6 16.5 9.2 9.3 14.1 21.7 13.8 34.9-.5 24.2-4.3 36.6-4.7 37.7 0 .1-.6 1.7-.4 5.2.2 5.4 6.8 5.5 4.3 16.8s-3.4 14.6-4.3 18.2c-.9 3.6-8.5 3.3-9.4 8-.9 4.7-.5 3.7-.5 3.7-1.4 8.9-4.2 23.4-6 28.1-2.3 5.8-6.6 13-8 15.3l-2.3 3.5-.2 4.2c0 .4-.5 9.7-.6 19.7-.2 19.6 1.1 26.9 5.6 32.3 8 9.5 25.4 13.8 28.8 14.6 4.8 1.1 10.2 1.9 15.9 2.8 8.7 1.3 18.6 2.9 25.4 5.3 11 3.9 20.2 8.6 27.1 13.7 3.5 2.5 6.2 4.6 8.2 7.6L256 400z" fill="#002F2F"/></symbol>

	<symbol id="textarea" width="100%" height="100%" viewBox="0 0 404 300" preserveAspectRatio="none"><path d="m0,0l404,0l0,300l-404,0l0,-300z"/></symbol>

	<symbol id="work" width="512" height="512" viewBox="0 0 512 512"><path fill="#002F2F" d="M496 384V96H16v288h175v16h-64v16h257v-16h-64v-16h176zM32 112h448v256H32V112z"/></symbol>

</svg>