<svg xmlns="http://www.w3.org/2000/svg" xmlns:xlink="http://www.w3.org/1999/xlink" style="display: none">

	<symbol id="arrow" viewBox="0 0 50 25"><title>arrow down</title><path stroke="#AAAFAF" fill="transparent" stroke-width="2" d="M0 0l25 25L50 0"/></symbol>

	<symbol id="codepen" viewBox="0 0 512 512"><title>codepen</title><path d="M241.239 303.936c-15.322-10.357-30.742-20.569-46.062-30.93-2.03-1.373-3.43-1.472-5.502-.029l-38.871 26.154C181.966 319.905 244 361.317 244 361.317v-53.786c-.012-1.224-1.553-2.78-2.761-3.595zm-46.147-63.27c15.454-10.16 30.851-20.409 46.109-30.86 1.486-1.018 2.775-3.509 2.799-5.334v-51.706s-62.033 41.124-93.262 61.942c13.7 9.159 26.671 17.913 39.787 26.443 1.02.662 3.396.284 4.567-.485zm74.746-31.312a4521.517 4521.517 0 0 0 47.627 31.815c.916.604 2.92.602 3.839 0l39.751-26.467L268 152.484v53.35c.01 1.201.805 2.821 1.838 3.52zm-11.729 21.015c-1.21-.802-3.611-.528-4.743.168-4.817 2.962-9.463 6.203-14.164 9.355-8.248 5.53-25.356 17.023-25.356 17.023l38.842 25.865c1.748 1.157 4.436 1.22 6.26.111l39.014-25.993c.001 0-34.079-22.701-39.853-26.529zM141 237.116v39.609l29.622-19.838z"/><path d="M256 32C132.288 32 32 132.288 32 256s100.288 224 224 224 224-100.288 224-224S379.712 32 256 32zm139 265.006c0 5.785-2.652 9.868-7.511 13.094a38019.909 38019.909 0 0 0-123.286 82.188c-5.854 3.918-11.174 3.754-16.984-.137-40.783-27.314-81.719-54.546-122.625-81.676-5.11-3.389-7.594-7.557-7.594-13.73v-79.729c0-6.141 2.521-10.332 7.624-13.716 40.906-27.13 81.939-54.363 122.724-81.676 5.818-3.896 11.094-4.007 16.938-.095a41090.004 41090.004 0 0 0 123.261 82.195c4.678 3.106 7.453 6.943 7.453 12.66v80.622z"/><path d="M316.247 273.234a3826.352 3826.352 0 0 1-45.386 30.332c-2.412 1.588-2.888 3.318-2.861 6.189v51.346l93.039-62.004-38.527-25.882c-2.345-1.604-3.93-1.567-6.265.019zM370 276.676V237.06l-29.59 19.873z"/></symbol>

	<symbol id="contact" viewBox="0 0 512 512"><title>contact</title><path fill="#002F2F" d="M64 128v256h384V128H64zm192 139.9L93.2 144h325.6L256 267.9zM80 368V154.1l115.1 87.6L127 319l2 2 78.9-69.6L256 288l48.1-36.6L383 321l2-2-68.1-77.4L432 154.1V368H80z"/></symbol>

	<symbol id="email" viewBox="0 0 512 512"><title>email</title><path d="M448 384V141.8l-131.1 99.8L385 319l-2 2-78.9-69.6L256 288l-48.1-36.6L129 321l-2-2 68-77.4L64 142v242z"/><path d="M439.7 128H72l184 139.9z"/></symbol>

	<symbol id="github" viewBox="0 0 512 512"><title>github</title><path d="M256 32C132.3 32 32 134.9 32 261.7c0 101.5 64.2 187.5 153.2 217.9 1.4.3 2.6.4 3.8.4 8.3 0 11.5-6.1 11.5-11.4 0-5.5-.2-19.9-.3-39.1-8.4 1.9-15.9 2.7-22.6 2.7-43.1 0-52.9-33.5-52.9-33.5-10.2-26.5-24.9-33.6-24.9-33.6-19.5-13.7-.1-14.1 1.4-14.1h.1c22.5 2 34.3 23.8 34.3 23.8 11.2 19.6 26.2 25.1 39.6 25.1 10.5 0 20-3.4 25.6-6 2-14.8 7.8-24.9 14.2-30.7-49.7-5.8-102-25.5-102-113.5 0-25.1 8.7-45.6 23-61.6-2.3-5.8-10-29.2 2.2-60.8 0 0 1.6-.5 5-.5 8.1 0 26.4 3.1 56.6 24.1 17.9-5.1 37-7.6 56.1-7.7 19 .1 38.2 2.6 56.1 7.7 30.2-21 48.5-24.1 56.6-24.1 3.4 0 5 .5 5 .5 12.2 31.6 4.5 55 2.2 60.8 14.3 16.1 23 36.6 23 61.6 0 88.2-52.4 107.6-102.3 113.3 8 7.1 15.2 21.1 15.2 42.5 0 30.7-.3 55.5-.3 63 0 5.4 3.1 11.5 11.4 11.5 1.2 0 2.6-.1 4-.4C415.9 449.2 480 363.1 480 261.7 480 134.9 379.7 32 256 32z"/></symbol>

	<symbol id="greensock" viewBox="-4.725 200.945 254.84019 328.42969" stroke="#3EAE68" stroke-width="2"><title>greensock</title><path d="M13.602 488.99c5.597 0 10.796 1.999 10.796 3.531 0 .934-1.2 3.266-1.933 3.266-.6 0-3.332-2.466-8.797-2.466-9.996 0-13.261 5.798-13.261 15.66 0 8.664 2.598 15.995 12.661 15.995 2.933 0 5.798-.333 7.264-.733v-11.396h-6.597c-.8 0-1.133-.533-1.133-1.666v-.933c0-1.2.333-1.666 1.133-1.666h9.93c1.2 0 1.666.533 1.666 1.666v14.995c0 3.198-6.131 4.065-12.596 4.065-11.262 0-17.46-6.331-17.46-19.793 0-14.128 6.53-20.526 18.327-20.526zm17.594 18.993c0-4.666-.667-6.865-.667-7.131 0-1.067 2.333-1.333 3.065-1.333 1.333 0 1.667 2.266 2 3.732 1.932-2.733 4.198-4.265 6.53-4.265 2.2 0 3.266.933 3.266 2.2 0 1.065-.467 3.065-1.133 3.065-.733 0-1.2-.6-3.132-.6-2.932 0-5.198 3.465-5.198 3.465v20.726c0 .8-.667 1.266-2.266 1.266h-.2c-1.6 0-2.266-.466-2.266-1.266v-19.86zm29.655-8.997c7.73 0 11.663 5.131 11.663 14.728 0 .666-1.2 2.332-1.866 2.332h-17.86c.466 6.265 3.132 9.13 8.73 9.13 4.931 0 7.664-2.399 8.264-2.399.8 0 1.999 2.2 1.999 2.8 0 1.332-4.465 3.598-10.197 3.598-9.396 0-13.861-4.798-13.861-14.928-.067-9.93 4.465-15.261 13.128-15.261zm6.598 13.062c0-5.931-2.266-8.93-6.798-8.93-4.931 0-7.53 2.999-7.93 8.93h14.728zm22.725-13.062c7.73 0 11.662 5.131 11.662 14.728 0 .666-1.2 2.332-1.866 2.332H82.11c.467 6.265 3.132 9.13 8.73 9.13 4.932 0 7.664-2.399 8.264-2.399.8 0 2 2.2 2 2.8 0 1.332-4.465 3.598-10.197 3.598-9.397 0-13.862-4.798-13.862-14.928 0-9.93 4.465-15.261 13.129-15.261zm6.664 13.062c0-5.931-2.266-8.93-6.797-8.93-4.932 0-7.531 2.999-7.93 8.93h14.727zm10.13-4.065c0-4.666-.667-6.865-.667-7.131 0-1.067 2.333-1.333 3.066-1.333 1.332 0 1.666 2.266 1.999 3.732 2.399-2.666 5.664-4.265 8.797-4.265 5.798 0 9.196 3.465 9.196 9.13v19.593c0 .8-.666 1.266-2.266 1.266h-.2c-1.599 0-2.265-.467-2.265-1.266v-19.193c0-3.466-2.066-5.465-5.798-5.465-2.533 0-5.265 1.533-7.131 3.932v20.726c0 .8-.666 1.266-2.266 1.266h-.2c-1.6 0-2.266-.466-2.266-1.266v-19.726zm32.522 11.395c.999 0 3.798 2.6 8.33 2.6 2.399 0 5.331-.734 5.331-4.132 0-6.665-16.327-4.066-16.327-17.394 0-8.33 6.797-11.596 13.395-11.596 5.998 0 10.196 2.066 10.196 3.932 0 1.533-1.733 4.932-3.132 4.932-.733 0-2.466-1.4-6.264-1.4-4.399 0-5.265 2.066-5.265 3.333 0 6.464 16.327 3.865 16.327 17.127 0 9.397-6.598 12.529-12.795 12.529-8.597 0-13.262-3.066-13.262-4.998 0-1.667 2.266-4.933 3.465-4.933zm39.651-20.458c8.997 0 13.662 5.397 13.662 15.194 0 9.863-4.665 15.26-13.662 15.26-8.996 0-13.728-5.397-13.728-15.26 0-9.864 4.732-15.195 13.728-15.195zm5.199 15.194c0-5.665-1.6-8.597-5.199-8.597-3.598 0-5.265 2.932-5.265 8.597 0 5.664 1.667 8.663 5.265 8.663 3.6 0 5.199-2.999 5.199-8.663zm26.657-15.194c3.998 0 9.396 1.332 9.396 3.931 0 1.067-2.065 4.332-2.999 4.332-.2 0-.532-.2-1-.4-.999-.533-2.531-1.266-4.93-1.266-4.532 0-6.398 2.799-6.398 8.597 0 5.797 1.732 8.663 6.064 8.663 2.665 0 4.465-.8 5.531-1.333.467-.2.8-.333 1-.333 1.266 0 2.932 3.199 2.932 4.265 0 3.199-8.063 3.932-9.863 3.932-9.663 0-14.261-4.931-14.261-15.06 0-9.998 4.398-15.329 14.528-15.329zm13.661-10.797c0-1.2 1-1.8 3.399-1.8h1.6c2.399 0 3.398.6 3.398 1.8v22.392l.2.066 6.864-10.262c.667-.933 1.8-1.067 3.466-1.067h2.065c2.133 0 3.2.334 3.2.867 0 .266-.2.666-.534 1.133l-7.864 11.195 9.197 14.595c.266.533.466.866.466 1.2 0 .533-1 .866-3.198.866h-2.4c-1.666 0-2.865-.2-3.398-1.067l-7.864-12.995-.2.067v12.195c0 1.2-1 1.8-3.399 1.8h-1.6c-2.398 0-3.398-.6-3.398-1.8v-39.185z"/><g><path d="M35.848 323.438c-8.154 3.836-29.735 21.102-33.892 26.218-4.317 5.116-5.595-2.877-1.12-16.146 3.517-10.711 12.47-25.26 27.498-37.73 8.792-7.193 28.137-17.584 39.966-23.66 2.399-1.28 33.413-14.388 61.07-20.943 2.399-.64-2.877 3.997-3.677 6.555-4.156 12.15-87.128 64.267-87.128 64.267l-2.717 1.44zM152.71 470.036c1.44 8.633.161 9.273-8.791 10.392-8.953 1.12-15.508-2.238-17.905-4.476-2.399-2.24-2.878-7.194-.48-11.67 1.44-2.878 2.878-3.837 3.678-7.354.799-3.357 1.439-4.157 2.077-5.436.64-1.12.8-2.239.96-10.072.16-7.833 0-22.541.8-28.776.8-6.394 28.456 2.878 28.456 2.878s-6.555 16.306-8.313 20.303c-1.759 3.997-1.599 11.67-1.599 13.269 0 1.599-.639 4.795-1.119 4.955-.48.16 1.599 4.316.639 6.715-.64 2.238 1.439 7.994 1.598 9.272zm10.553-244.437c-.96-6.075 0-18.067 1.278-19.984 3.998-5.436 25.1-6.075 29.577.32 1.918 2.877 1.758 9.591 1.438 13.908-.32 4.316-1.438 13.589-1.599 16.627-.159 2.238-23.34 5.754-28.456-.32-1.44-1.598-2.238-10.551-2.238-10.551zm47.001 228.93c9.752 7.035 17.266 8.313 22.221 10.871 4.956 2.559 3.677 7.515-4.636 8.953-6.715 1.279-17.266-1.28-24.3-1.28-7.034 0-22.701.8-26.858-2.077-4.795-3.357-2.718-9.592-2.718-9.592 1.28-3.517 4.476-11.351 3.517-17.745-.959-6.395-2.238-9.912-4.636-15.827-2.398-5.915-4.156-20.463-1.918-21.263 2.239-.8 1.598 0 4.477.64 2.877.638 6.074 1.598 12.31 1.598 6.234 0 13.108-.96 15.507-1.439 2.398-.48 4.316-.96 3.516 3.997-.799 4.956-3.197 14.228-3.357 21.422-.16 7.194-.16 15.508.32 16.946.48 1.44 3.997 3.038 6.555 4.796z"/><path d="M176.052 241.586c-17.585 15.188-51.637 19.344-102.155 38.848-12.95 4.955-47.48 19.823-55.794 35.33C46.08 299.619 56.472 321.84 58.71 344.7c2.078 21.423 12.79 32.614 40.287 31.974 28.297-.64 36.93 15.827 44.763 35.171 15.187-74.02 39.487-88.407 55.153-101.036 33.254-27.019-7.673-74.66-22.86-69.223z"/><path d="M176.052 241.586c-42.205 14.707-83.93 18.384-133.01 48.6-11.67 7.194-36.29 23.5-41.086 54.674 17.904-19.824 59.31-44.762 109.989-60.59 25.579-7.993 44.284-13.268 66.985-22.061-1.598-10.233-1.598-14.23-2.878-20.623zm53.875 87.607s-3.037 10.392-9.112 13.75c0 0-4.476 1.598-13.428-3.358-2.558-1.438-4.476-6.394-4.317-7.994.16-3.837 2.558-5.595 2.558-5.595s2.558-4.317 5.595-4.157c3.038.16 8.154.64 9.753-.8 1.438-1.598 9.272 2.878 8.951 8.154z"/><path d="M164.701 228.636s-.638 8.154-1.758 13.269c-.16.96-4.955 1.439-8.473 2.878 6.714 19.184 47.161 19.024 52.437 9.592-2.558-1.758-7.674-4.476-10.071-5.435-2.399-.96-2.239-.8-2.399-5.276-.16-4.477-.48-12.79-.8-15.028-.32-2.238-25.1-2.238-28.936 0z"/><path d="M166.3 228.636s0 4.636-.48 9.112c-.159 2.079-.319 3.357-.638 4.956-.16.96 5.435 4.796 7.034 13.269 7.673 17.106 25.42 8.633 32.773.48-2.558-1.76-6.715-4.157-11.51-6.075-2.399-.96-1.28-3.038-1.439-7.514-.16-4.476-.8-11.031-1.12-13.429-.32-2.398-20.783-3.037-24.62-.799z"/><path d="M164.701 228.636s-.16 2.878-.638 6.235c2.077 2.078 4.795 4.956 6.874 6.715 1.439 1.279 4.955 1.119 8.153 1.119 2.878 0 5.436.32 6.555-.32 2.559-1.279 6.235-4.476 8.313-6.874-.16-2.878-.32-5.596-.479-6.875-.161-2.238-24.941-2.238-28.778 0z"/><path d="M179.25 240.786c-1.92 0-4.158-.16-5.916-.48-.8-.16-1.599-.639-2.238-.959-1.12-.8-2.239-1.758-3.516-2.718-2.56-1.918-2.718-3.037-2.718-3.516 1.119-10.072-.32-18.545-.32-18.545s-1.12-4.317 4.955-5.436c6.075-1.12 9.752-1.279 9.752-1.279s3.837 0 9.752 1.279c6.075 1.12 4.956 5.436 4.956 5.436s-1.439 8.473-.32 18.545c0 .479-.16 1.598-2.718 3.516-2.238 1.599-3.996 3.357-5.754 3.677-1.76.32-3.998.48-5.915.48z"/><path d="M179.25 203.697c-10.551 0-12.63 2.877-15.668 6.075-.639.799-.16 5.595.96 15.827h1.439s-.96-2.879-.8-6.235c.16-3.357.8-3.197.32-3.997-.64-.96-1.919-2.559.96-4.157 2.877-1.599 7.353 1.279 12.789 1.439 5.435-.16 10.071-3.038 12.949-1.439 2.877 1.598 1.598 3.197.96 4.157-.64.96.159.639.319 3.997.16 3.356-.8 6.235-.8 6.235h1.439c.959-10.232 1.599-14.708 1.119-15.508-2.718-3.517-5.435-6.235-15.986-6.394zm50.677 125.975s-3.037 9.752-8.952 13.11c-1.28-.64-1.12-1.599-2.238-3.038-.32-.479-1.44-.8-1.919-1.279-.48-.48-.319-1.279-1.119-1.918-.64-.64-1.119-.16-1.759-.64-.639-.638-.8-1.438-1.278-1.917-.32-.32-1.599-.48-1.918-.8-.8-.8-7.833-2.238-7.514-3.837.639-2.399 1.918-4.157 1.918-4.157s3.038-4.476 6.074-4.316c3.038.16 5.916.8 7.515-.64 1.759-1.599 11.67 4.317 11.19 9.432z"/><path d="M209.145 259.011s10.071-2.398 16.946 4.157c6.875 6.715 6.394 15.027 4.317 20.143 1.758 2.078 4.955 7.833 2.558 14.708 10.55 8.952 5.914 22.701-3.517 31.814 0 0-2.239-8.314-11.191-8.793.32-3.197-8.313-5.756-4.317-14.07-6.075-1.438-5.915-5.595-6.874-10.71-.8-5.116 2.078-37.249 2.078-37.249z"/><path d="M205.468 263.487s11.67-5.914 18.545.8c6.873 6.715 4.954 14.068 2.877 19.184 1.758 2.078 5.915 7.994 3.357 15.027-.48 1.599-3.997 1.599-6.555 5.756 6.394-3.678 10.391-2.718 11.83 1.917 2.238 7.194-2.718 15.827-7.034 20.623 0-.16-.16-.32-.16-.48-.64 2.4-1.439 7.035-6.234 12.15-2.399 2.558-4.317 2.239-7.035 1.6-3.197-.8-4.316-2.24-8.792-4.637-2.558-1.439-1.12-3.197-1.12-4.636 0-.32.32-.8.8-1.439.32-.8 1.279-2.077 2.717-3.517 0 0 2.079-2.877 5.117-2.718 3.037.16 6.234-.479 7.034-1.278 0-5.596-6.394-5.756-4.157-15.348.16-.48.96-1.28 3.517-1.599-3.837-.8-5.595-.96-8.313-3.517-1.918-1.758-3.357-3.996-3.837-6.873-.959-4.956-2.557-31.015-2.557-31.015zm-33.733-10.071c-.959-1.28-5.914-7.674-15.347-10.232-2.718-.8-4.476 1.439-7.193 3.038-.8-.48-4.317-2.079-6.235-.96-1.919 1.118-3.197 2.238-5.116 3.037-.96-.48-3.517-.48-5.595.32-2.079.64-5.276 2.078-8.314 6.235-1.918 6.875 33.892 1.758 33.892 1.758l13.908-3.196z"/><path d="M172.056 253.416c-5.117-1.759-4.317-7.674-15.668-8.633-2.238-.16-3.677 1.598-5.276 2.717.8.8 1.599 2.079 2.078 3.357-1.438-1.598-3.996-3.677-6.555-4.156-2.398-.48-3.996 1.279-6.554 2.558.479.479.959 1.279 1.598 2.239-2.239-1.439-3.837-1.919-6.874-.8-2.078.639-6.075 2.398-9.112 6.714-1.919 6.875 32.293-.8 32.293-.8l14.07-3.196zm30.054 2.558s0-1.76-.16-3.357c0-.32-1.278-1.12-1.278-1.439l-.32-.32s2.559-1.439 4.477-.639c2.077.639 3.197 3.357 3.197 3.357 3.677-1.279 3.996.16 5.755 2.078 3.837-.8 4.316.64 6.715 4.157 0 0-2.878-.48-8.473.479-5.436.799-9.912-4.476-9.912-4.316z"/><path d="M201.471 255.174s.96-.8.639-.96c1.758-.959 4.157-2.077 5.276.96 3.677-1.28 4.157.48 5.915 2.399 4.476-2.079 4.795.478 5.115 1.598-1.438 0-3.516.16-6.394.48-5.435.799-10.711-4.637-10.551-4.477z"/><path d="M147.116 251.177s9.113 3.197 16.786 2.718c7.674-.64 20.783-1.279 27.817 2.878 0 0 7.194-2.559 13.909-.8 6.715 1.758 19.024 13.27 15.348 25.419-.32.8-2.399 2.078-4.796 2.878 0 0 1.279 5.435-.96 9.911-2.238 4.317-7.194 12.63-7.354 24.14-.16 1.919-.479 5.915-.799 7.834-12.47-.48-31.654-5.116-50.518-4.796.16-2.077.32-3.357.48-5.435h.478c-.959-5.276-1.278-7.994-2.238-11.99-6.075-3.837-12.47-8.313-17.905-16.787-5.276-8.473 9.752-35.97 9.752-35.97zm61.709 86.329s9.912 35.491-1.758 50.36c0 0 1.758 6.873-2.238 14.227-.64 3.197-1.44 6.075-1.918 9.272-2.079 13.269-5.597 18.864-6.556 40.127l-9.592-.16s-1.12-15.347-4.477-23.5c-1.917-4.636-9.432-10.872-9.111-17.106.32-4.796 1.278-8.793 9.432-15.188.64-9.272-8.633-18.065-7.194-52.597l33.412-5.435z"/><path d="M205.948 336.067c2.558 16.306 8.473 40.447-2.238 52.276.478 2.239.799 5.436.159 9.112-.32 1.919-.96 3.997-1.758 6.235-1.6 3.837-2.239 9.432-2.718 12.79-2.079 13.268-2.079 13.909-3.038 35.17l-9.592-.16s-1.12-15.347-4.477-23.5c-1.917-4.635-5.914-8.632-6.234-14.867-.32-4.795 3.038-14.387 11.032-14.068-.48-19.344-9.433-15.507-11.83-55.794l30.694-7.194zm-58.832-84.89s3.517 1.12 7.354 1.44c3.837.319 7.994 0 11.67-.161 7.674-.639 18.545-1.439 25.74 2.718 0 0 3.996-1.28 8.312-.96 1.919.16 3.838 1.759 6.075 2.399 7.034 1.758 13.749 13.428 10.71 23.98-.319.8-2.557 0-5.115.8.479 2.238.8 7.354-1.759 12.79-2.717 5.435-6.234 12.47-5.595 25.898-16.786-.8-24.3-1.918-40.927-2.718-1.438-5.915-2.398-11.83-2.558-14.868 2.239-1.119 3.517-2.077 5.276-3.996-4.795.8-6.714.48-9.592-1.12-2.878-1.598-7.993-6.714-10.551-10.07-.32-.321-2.078 4.954-6.074 5.115-1.44-2.078 4.635-7.994 3.516-10.232-3.996-8.154 3.518-31.015 3.518-31.015z"/><path d="M207.226 322.798s.32 5.755.32 7.194c0 1.599 1.279 6.394 1.438 8.633-1.758 3.037-9.432 9.912-23.34 12.47-13.75 2.877-31.974-18.705-31.974-18.705.48-2.078 2.078-8.154 3.198-11.35.16-.32.48-1.12.48-1.439 1.439-2.078 49.878 3.197 49.878 3.197z"/><path d="M203.71 323.278c0 3.997.638 6.875 1.119 9.433.799 4.636 2.077 7.673 2.077 10.71 0 9.273-12.15 7.674-22.382 7.994-13.748 2.878-25.419-18.704-25.419-18.704.96-3.677 1.6-7.833 3.038-11.351.16-1.918.48-4.316.639-5.435 19.504 0 33.252 1.119 41.246 1.917.32 1.759 0 4.796-.318 5.436z"/><path d="M188.361 343.9s-8.472-18.864-33.892-13.268c-6.074 17.106-14.228 36.77-8.952 58.032-5.276 7.194-11.351 11.192-11.351 24.46 0 13.269.64 15.507.64 15.507l18.704.96s6.075-7.833 8.473-16.306c.64-2.399 1.279-6.715.8-11.67.638-.96 3.356-3.197 3.677-7.514 0 0 9.112-4.796 14.388-16.466 4.956-10.553 3.677-19.666 7.513-33.734z"/><path d="M188.361 343.9c-.478-1.758-6.874-19.023-30.534-13.908-13.908 37.09-8.792 52.437-6.715 59.15-9.432 11.99-13.748 14.549-11.83 38.849h12.47c5.755-9.112 7.035-12.47 7.354-24.46 0-.48-1.758.96-3.037 2.558.96-4.956 3.677-5.915 5.755-8.952.96-1.28 1.758-3.198 1.758-5.756 11.19-7.513 15.348-16.946 17.745-26.698 1.92-6.714 4.157-17.745 7.034-20.782z"/><path d="M148.874 318.162s4.317.16 8.155 1.439c3.677 1.279 3.677 2.078 5.115 3.677 1.439 1.6 4.956 3.997 4.317 6.394-.32 1.28-1.12 1.6-2.238 2.718-.48.48-3.998 4.316-4.797 4.796-.48.32-1.119.8-1.598 1.12l-2.398 1.598c-1.6.8-2.718 1.28-4.476 1.12 0 0-3.997-.16-6.556-2.878 0 0-.32-1.28.32-1.918 0 0-3.357-2.878-4.316-4.797-.96-1.917-.96-4.635-.32-6.074.32-1.44 6.554-5.437 8.792-7.195zm3.998 155.552l-.48 3.997s-1.438 1.758-12.15 1.599c-10.87-.16-13.748-3.517-14.707-5.276l-.64-4.157s2.08-3.037 2.559-3.037c3.517.32 15.507 5.115 23.82 6.394.798 0 .957.32 1.598.48zm23.18-8.154c0 1.758-.16 1.758-.16 3.517 1.918 1.439 6.715 2.239 15.827 2.078 13.27-.32 25.579 3.997 40.606 1.439l.16-2.878-1.438-.16-53.237-4.316-1.758.32z"/><path d="M187.722 471.156h3.997c8.634-.32 16.787 1.598 25.579 2.078 4.636-.16 10.392-1.28 9.912-4.636l-45.402-3.837c-2.718 3.037-.64 5.595 5.914 6.395zm-52.117-67.305c1.44.96 11.191 6.715 27.018 5.915-.32 3.038-.16 8.953-7.194 19.344-3.517 5.116-6.555 14.069-7.194 25.42.16 2.558 1.599 4.795-.32 8.153.64 2.078 3.197 6.234 4.476 8.792 1.279 2.559 1.919 5.436-6.555 5.596-8.633.16-22.541-.8-20.622-7.513.96-3.517 3.677-7.194 3.997-8.634.32-1.439.32-5.755 3.037-8.633 2.398-7.993 1.599-15.667 1.12-22.86-.8-7.515-.96-19.505 2.237-25.58zm14.868-130.292c11.351-15.188 1.758-27.337-16.466-23.66-7.354 1.438-14.707 6.554-15.188 15.826-2.397.32-7.833.639-10.55 10.551-2.078 7.674-3.197 9.112-6.875 12.949-2.398 2.718.16 8.313 1.918 12.31 5.915 13.75 24.14 15.028 36.45 25.42 4.157-1.12 8.473-5.755 9.752-8.793-10.392-12.31-8.154-17.106-12.31-23.5 4.476-1.6 14.708-7.834 13.27-21.103z"/><path d="M148.235 272.6c.639-.96 1.758-3.038 2.238-3.837.16-.16 1.918 2.877 2.079 2.718 4.316-7.035 5.435-17.267.478-18.226-1.119-.16-3.196-.639-4.955-1.28-3.197-1.119-6.074-1.119-11.191-.159-7.034 1.279-14.068 6.395-14.068 13.749 0 .48 4.955 1.918 6.394 7.834-2.398-3.358-6.555-7.035-11.51-3.837-5.277 3.356-2.559 11.03-9.593 19.023-2.398 2.718-2.078 5.916.48 12.31 4.156 10.072 23.82 15.508 34.531 25.1 2.558-1.12 4.316-3.678 5.596-5.596-7.195-7.513-10.073-14.548-12.15-19.664-2.558-5.915-5.436-9.272-11.032-13.75 2.879 1.12 5.117 2.24 6.395 3.198 1.438.96 3.517 1.12 5.436.48 6.875-2.396 10.552-11.99 10.872-18.063z"/><path d="M217.778 275.158c-.48 6.075-4.956 3.037-7.354 1.918-4.796-2.078-9.593-3.517-15.188-3.517-5.595 0-12.79.48-19.024 2.078-8.632 2.398-11.191 2.239-15.028.32-3.836-2.079-10.55-7.194-10.55-7.194s-.16 1.598 1.439 3.677c2.077 2.558 6.714 5.755 12.949 7.833 3.037.96 5.436.32 8.154-.32 14.228-3.517 29.255-4.156 41.884 3.517.64.32 2.878-.64 3.838-2.078 1.277-2.078-1.12-6.234-1.12-6.234zm-72.74 60.909c1.279.8 2.877 1.28 4.635 2.718 0 0-1.438 0-2.077-.64-.8-.479-2.399-1.917-2.558-2.078zm46.202-126.775c-.48-1.439-3.998-3.997-12.15-3.997-8.793 0-11.351 2.718-11.51 4.156 0 .48-.64 5.597-.8 7.674 0 0 0 2.558.16 6.394.16 2.558.799 3.997 1.118 7.355.32 3.516 1.28 5.754 3.038 8.632.8.48 1.438.96 2.238 1.12 3.198.639 8.793.799 11.83 0 1.759-.48 3.997-3.517 4.477-6.235.639-3.357 1.278-5.756 1.438-7.833.32-2.078.48-6.715.64-7.994.48-3.516-.32-8.953-.48-9.272zm-16.787 197.597s8.474 3.677 29.417.48c0 0-5.915 29.735-3.197 44.602 0 0 2.717 3.837 22.86 11.19 0 0 8.953 2.24 8.634 6.716 0 0 .319.96-10.551.639-10.87-.32-21.103-2.238-28.297-2.238-7.195 0-14.868.319-16.147-1.759-1.438-1.918.32-6.874 2.398-9.752 2.24-3.037 1.599-5.276 1.44-10.71-.482-14.229-11.353-28.937-6.557-39.168z"/><path d="M172.695 409.607c-1.12 1.599.159 7.673 1.758 13.588 1.598 5.915 5.116 9.433 5.915 19.184.8 9.592.96 10.871-1.759 16.466-2.718 5.595-3.517 10.711 5.915 10.871 9.432.16 14.548-.16 24.14 1.28 9.593 1.438 12.95 1.918 18.226 1.119 5.276-.8 6.394-2.559 4.157-4.157-2.239-1.599-11.511-3.357-15.508-6.555-3.837-2.877-14.708-7.674-14.867-8.952-.48-4.317-.64-19.984.16-25.1s1.918-12.47 2.238-14.388c.32-1.918 1.918-3.837-.8-3.198-2.717.64-12.949 2.079-20.622 1.6-7.674-.48-8.473-2.238-8.953-1.758z"/><path d="M178.13 459.006c2.718 1.278 6.715 2.238 9.753 2.238 0 0-1.12 5.276.638 8.473 1.759 3.198-12.789 1.28-12.789 1.28l-.639-11.351 3.038-.64zm42.366 13.748c2.557-.8 4.316-3.677 2.238-6.394-2.238-2.718-4.157-3.197-1.28-3.357 2.879-.16 13.43 6.234 13.43 6.234l-5.436 4.956-8.952-1.439zm-48.281-56.913c3.677 1.28 9.272 1.599 14.069 1.439 4.795-.16 11.99-.8 16.627-2.398 4.635-1.599 2.717 1.758 2.717 1.758l-2.558 2.399s-6.075 2.397-15.986 2.238c-11.67-.16-15.188-1.439-15.188-1.439l.319-3.997zm.319 7.994c3.678 1.28 9.273 1.599 14.07 1.439 4.795-.16 11.19-.16 15.826-1.919 1.918-.638.8 2.079.8 2.079l-.8 1.438s-6.235 2.239-15.987 2.078c-11.67-.16-13.748-1.12-13.748-1.12l-.16-3.995z"/><path d="M174.453 406.889s13.91 4.956 29.577 1.599c0 0-6.075 28.616-3.357 43.324 0 0 2.717 3.836 22.86 11.19 0 0 8.953 2.239 8.634 6.715 0 0 .319.96-10.551.639-10.872-.32-21.103-2.239-28.297-2.239-7.195 0-14.868.32-16.147-1.758-1.438-1.918.32-6.874 2.398-9.752 2.24-3.037 1.599-5.276 1.44-10.71-.482-14.069-11.353-28.777-6.557-39.008z"/><path d="M174.453 406.889s13.91 4.795 29.577 1.439c0 0-6.075 28.776-3.357 43.484 0 0 2.717 3.836 22.86 11.19 0 0 8.953 2.239 8.634 6.715 0 0 .319.96-10.551.639-10.872-.32-21.263-3.357-28.297-2.239-7.514 1.28-14.868.8-16.147-1.758-1.119-2.077.32-6.874 2.398-9.752 2.24-3.037 1.599-5.276 1.44-10.71-.482-14.069-11.353-28.777-6.557-39.008zm-12.47-95.121c0 1.12 12.47 7.353 19.344 8.633 6.875 1.278 21.263 0 23.5-.48l-.32 2.239s-17.105 2.558-30.214-.96c-13.11-3.516-11.67-4.316-11.67-4.316l-.64-5.116zm-26.698 136.367c1.918.96 8.793 2.718 13.27 1.759.638-.16 0-11.032 1.758-15.988 2.558-6.874 6.715-12.47 8.632-24.619-6.714-.64-14.387-2.398-18.385-3.677-5.115 15.667-3.356 29.095-5.275 42.525zm10.712 10.072c1.12.32 1.918 1.598 2.239.8.638-1.44-1.12-4.157-1.28-6.075v-.16c-1.438-1.279-11.19-1.439-10.55-.8-1.12 2.078-2.878 1.759-3.517 5.915-.32 2.078 2.238.32 4.635.16-4.316 2.877-9.271 6.555-10.071 9.752-.96 4.476.64 5.755 5.436 8.154 4.157.959 9.112 1.119 12.949.959 4.317-.8 5.116-2.877 3.837-5.756-1.92-4.316-3.198-9.912-3.678-12.95zm1.758-207.669c5.276 3.037 12.63 2.238 15.348 2.078.64 0 7.034-1.12 7.354-.96.639.16.639.64.639.64s-2.398 1.278-7.833 1.598c-5.116.32-11.191 0-14.548-1.598-3.997-1.758-.96-1.758-.96-1.758zm54.355 3.037c.96.64 7.195 3.038 9.913 5.915 2.398 2.559 1.12 2.399.639 1.759-.64-.8-5.596-4.157-7.514-4.956-1.918-.799-4.317-2.238-4.317-2.558 0-.32 1.28-.16 1.28-.16zm-55.155 66.345c4.637-.319 9.433.8 12.47 3.997 1.6 1.599 4.157 3.357 3.838 4.956 0 .48-.96 1.759-1.758 2.718-.48.639-1.919 2.077-2.399 2.558-.639.48-2.877 2.238-3.357 2.557-.48.32-1.12 1.12-1.599 1.28-1.598.8-3.357.16-4.955-.64-1.598-.799.32-.959-1.439-2.238-4.316-3.037-6.715-5.116-4.956-11.03.16-1.12 1.918-2.4 4.155-4.158z"/><path d="M106.19 283.31c-14.388 5.756-50.999 23.982-61.39 29.577 8.633 5.435 12.63 18.544 13.91 31.813.159 1.28.319 2.399.479 3.677.16 1.12.32 1.919.479 2.4 0 .16 0 .479.16.638 9.432-25.738 43.164-52.916 44.443-54.994.639-.96-.8-5.116 1.439-9.112 2.878-5.117 8.474-7.356.48-3.998zm34.212 120.702c7.353-14.708 7.513-28.777 7.353-45.244 0-6.874 4.956-16.626 2.399-13.908-9.593 10.71-33.732 30.855-51.158 31.973 24.46-.799 34.052 11.51 41.406 27.179z"/><path d="M30.732 326.475c9.112-6.555 56.273-31.653 67.624-35.171 11.35-3.677 7.833-7.994 7.833-7.994s-46.042 19.824-73.539 36.93"/><path d="M165.02 280.273c-3.676-1.438-6.554 2.879-5.595 7.035.96 4.157 9.593 8.792 9.113 23.98-.32 12.47-3.038 17.585-3.038 17.585l-6.075-7.672s-.959-17.267-3.037-19.825-8.633-7.194-11.19-9.592c-2.559-2.398 2.877-5.595 2.557-10.072-.32-4.316 2.718-12.949 2.718-12.949l14.548 11.51zm22.223 68.104c-.32 11.99 2.398 29.735 3.517 38.209 1.12 8.472 2.558 9.112 0 12.95-2.558 3.677-5.915 9.751-5.915 9.751l-11.031-.96s8.793-11.19 9.271-13.269c.48-2.077-4.476-17.904-4.476-17.904l8.634-28.777zM165.98 236.47c2.24 4.955 4.956 7.193 9.272 8.633 2.558.959 12.63 2.238 16.627-2.239 1.758-2.078.639-7.674.639-7.674l-9.112 7.354-12.31-2.238-1.439-3.677-3.676-.16z"/><path d="M166.94 247.5c4.156 2.718 14.547 5.276 17.425 5.756 2.877.639 7.513-3.038 9.752-3.997 2.398-1.119 6.555-1.759 11.35 2.558.48.48-1.119 2.558-1.119 2.558-.16-.16-1.119-.16-2.398-.8-1.279-.639-2.398-1.119-4.316-.959-7.994.96-9.273 3.677-16.307 2.078-7.034-1.6-8.793-2.878-15.666-2.558"/><path d="M165.5 247.98c5.276 2.238 15.508 4.636 18.385 5.276 2.878.64 7.514-2.239 9.752-3.677 3.998-2.558 9.113-.48 11.511 2.238 1.598 1.758 2.239 2.877 2.239 3.357 0 .639-1.919 0-1.919 0-1.119-.48-2.398-.639-3.356-1.28-1.28-.638-2.56-1.597-4.477-1.438-7.994.96-9.592 3.677-16.466 2.078-6.874-1.598-8.633-3.037-15.986-2.558m-24.462 145.32c-.32-.32.32-.639 0-.639-2.077 0-4.955-1.599-6.555-3.837-6.874-9.911-16.946-16.466-35.17-15.986-27.339.639-38.21-10.551-40.288-31.974-1.119-11.67-4.316-23.02-10.87-29.416L44 317.843c7.353 6.394 9.752 16.786 11.35 31.014 2.559 21.422 19.824 31.334 39.968 31.654 20.943.32 28.456 4.636 36.29 15.188 2.557 3.357 5.435 4.476 7.673 4.956l1.44-3.359z"/><path d="M214.9 294.502c.48 2.397 1.758 7.034 4.316 9.271 1.12 1.12 1.28 1.439.32 1.439s-7.993-.32-7.993-.32l-1.919-3.356 5.276-7.034z"/></g></symbol>

	<symbol id="home" viewBox="0 0 512 512"><title>home</title><g fill="#002F2F"><path d="M256 112L96 240v208h112V320h96v128h112V240L256 112zm144 320h-80V304H192v128h-80V247.69l144-115.2 144 115.2V432z"/><path d="M256 64l-96 76.8V96H96v95.999l-32 25.499 11.51 11.384L256 84.49l180.49 144.393L448 217.498 256 64zm-112 89.599l-32 25.6V112h32v41.599z"/></g></symbol>

	<symbol id="input" viewBox="0 0 404 77" preserveAspectRatio="none"><path d="m0,0l404,0l0,77l-404,0l0,-77z"/></symbol>

	<symbol id="link" viewBox="0 0 512 512"><title>demo</title><path d="M256.5 208h-.5.5zm112-48H320s26 17 31.6 48h16.9c17.6 0 31.5 13.9 31.5 31.5v32c0 17.6-13.9 32.5-31.5 32.5h-112c-17.6 0-32.5-14.9-32.5-32.5V240h-48v31.5c0 11.5 2.5 22.5 6.9 32.5 12.6 28.2 40.9 48 73.6 48h112c44.2 0 79.5-36.3 79.5-80.5v-32c0-44.2-35.3-79.5-79.5-79.5z"/><path d="M329.6 208c-12.1-28.3-40.1-48-73.1-48h-112c-44.2 0-80.5 35.3-80.5 79.5v32c0 44.2 36.3 80.5 80.5 80.5H192s-25.8-17-32.1-48h-15.4c-17.6 0-32.5-14.9-32.5-32.5v-32c0-17.6 14.9-31.5 32.5-31.5h112c17.6 0 31.5 13.9 31.5 31.5V272h48v-32.5c0-11.2-2.3-21.9-6.4-31.5z"/></symbol>

	<symbol id="skills" viewBox="0 0 512 512"><title>skills</title><path d="M202.4 201.7zm160.9 162.2c-12.9-4.6-31.4-6.2-43.2-8.8-6.8-1.5-16.7-5.3-20-9.2-3.3-4-1.3-40.9-1.3-40.9s6.1-9.6 9.4-18 6.9-31.4 6.9-31.4 6.8 0 9.2-11.9c2.6-13 6.6-18.4 6.1-28.1-.5-9-5.2-9.5-5.7-9.5 0 0 4.9-13.6 5.6-42.4C331.1 129.6 305 96 256 96s-75 33.5-74.3 67.6c.6 28.7 5.6 42.4 5.6 42.4-.5 0-5.2.5-5.7 9.5-.5 9.7 3.6 14.9 6.1 27.9 2.4 11.9 9.2 12 9.2 12s3.6 23.1 6.9 31.5c3.3 8.5 9.4 18 9.4 18s2 36.9-1.3 40.9-13.2 7.7-20 9.2c-11.9 2.6-30.3 4.3-43.2 8.9C135.8 368.5 96 384 96 416h320c0-32-39.8-47.5-52.7-52.1zM256 400H118.7c2-3 4.7-5.1 8.2-7.6 7-5.1 16.1-9.8 27.1-13.6 6.8-2.4 16.7-4 25.4-5.3 5.7-.9 11.1-1.7 15.9-2.8 3.4-.8 20.8-5 28.8-14.6 4.5-5.4 5.8-12.7 5.6-32.3-.1-10-.6-19.3-.6-19.7l-.2-4.2-2.3-3.5c-1.5-2.3-5.8-9.5-8-15.3-1.8-4.7-4.6-19.2-6-28.1 0 0 .4 1-.5-3.7s-8.4-4.3-9.4-8c-.9-3.6-1.8-6.9-4.3-18.2-2.5-11.3 2.8-11.2 3.9-16.2.6-3.1 0-5.7 0-5.8-.3-1-4.1-13.4-4.7-37.7-.3-13.2 4.6-25.6 13.8-34.9 10.6-10.8 26-16.5 44.5-16.5 19 0 34 5.7 44.6 16.5 9.2 9.3 14.1 21.7 13.8 34.9-.5 24.2-4.3 36.6-4.7 37.7 0 .1-.6 1.7-.4 5.2.2 5.4 6.8 5.5 4.3 16.8s-3.4 14.6-4.3 18.2c-.9 3.6-8.5 3.3-9.4 8-.9 4.7-.5 3.7-.5 3.7-1.4 8.9-4.2 23.4-6 28.1-2.3 5.8-6.6 13-8 15.3l-2.3 3.5-.2 4.2c0 .4-.5 9.7-.6 19.7-.2 19.6 1.1 26.9 5.6 32.3 8 9.5 25.4 13.8 28.8 14.6 4.8 1.1 10.2 1.9 15.9 2.8 8.7 1.3 18.6 2.9 25.4 5.3 11 3.9 20.2 8.6 27.1 13.7 3.5 2.5 6.2 4.6 8.2 7.6L256 400z" fill="#002F2F"/></symbol>

	<symbol id="textarea" viewBox="0 0 404 300" preserveAspectRatio="none"><path d="m0,0l404,0l0,300l-404,0l0,-300z"/></symbol>

	<symbol id="work" viewBox="0 0 512 512"><title>work</title><path fill="#002F2F" d="M496 384V96H16v288h175v16h-64v16h257v-16h-64v-16h176zM32 112h448v256H32V112z"/></symbol>

</svg>