<svg id="Layer_1" data-name="Layer 1" xmlns="http://www.w3.org/2000/svg" width="106.43" height="98" viewBox="0 0 106.43 98">
  <title>brush</title>
  <g>
    <path d="M1163.74,656.23c0-.17,0-0.34,0-0.52,0-.48-0.12-1-0.19-1.45-0.05-.32-0.1-0.64-0.17-1-0.23,0-.46,0-0.69,0a14.31,14.31,0,0,1-10.46-4.74l-0.31-.32a14.27,14.27,0,0,1-4.21-10.35,34.4,34.4,0,0,0-6.86-.3h0c-0.64,0-1.26.11-1.87,0.2l-0.29,0c-0.6.09-1.19,0.21-1.76,0.35h0c-0.57.14-1.12,0.31-1.66,0.5l-0.34.13q-0.61.23-1.19,0.5l-0.4.19a15.49,15.49,0,0,0-1.38.77c-6.68,4.25-8.44,12.27-9.9,21.54-1.31,8.32-3.73,13.77-7.4,16.69a1.58,1.58,0,0,0-.26,2.22,1.55,1.55,0,0,0,.12.11,1.59,1.59,0,0,0,.23.22l0.17,0.08a1.57,1.57,0,0,0,.26.12l0.2,0a1.55,1.55,0,0,0,.31,0c0.93,0,1.88-.06,2.83-0.07,5.78-1.29,30.29-7.64,32.77-23a1.34,1.34,0,1,1,2.64.42c-2,12.24-15.55,19.11-25.5,22.56h0c1.22,0,2.44,0,3.66-.09h0c5.38-1.51,22.29-7.32,24.88-21a1.34,1.34,0,0,1,2.63.5c-1.82,9.59-9.54,15.59-16.51,19.12l1.26-.33,0.31-.09,1.16-.35,0.52-.17,1.05-.37,1-.41,1.07-.48,1-.48,0.64-.34,1-.6,0.53-.32c0.52-.33,1-0.67,1.54-1,5.3-3.86,8.53-8.82,9.35-14.37a19.55,19.55,0,0,0,.2-2.39C1163.81,657.45,1163.78,656.84,1163.74,656.23ZM1141,643.14c-9.38.6-11,7.28-12.14,11.7l-0.09.38a1.34,1.34,0,0,1-1.29,1,1.35,1.35,0,0,1-.33,0,1.34,1.34,0,0,1-1-1.62l0.09-.37c1.05-4.22,3.24-13,14.57-13.72A1.34,1.34,0,1,1,1141,643.14Z" transform="translate(-1114.02 -583.35)" fill="#3EAE68"/>
    <path d="M1220.26,585.49a1.33,1.33,0,0,0-.24-1.65,1.62,1.62,0,0,0-.32-0.25l-0.09-.05a1.52,1.52,0,0,0-.38-0.15h0a1.23,1.23,0,0,0-.38,0h-0.1a1,1,0,0,0-.37.14c-28,18.25-46.53,28.29-61.34,42.28l-0.18.18a1.34,1.34,0,0,1,0,.26c-0.06.4-1.36,9.78,9,15.07a1.34,1.34,0,0,1-1.21,2.38c-8.28-4.22-10.14-10.92-10.47-14.81h0c-0.48.6-.91,1.19-1.3,1.79l-0.13.2c-0.16.26-.31,0.51-0.46,0.76l-0.24.44c-0.12.22-.24,0.44-0.35,0.67s-0.32.7-.46,1c-0.06.15-.11,0.29-0.16,0.44s-0.19.54-.26,0.82-0.07.26-.11,0.39c-0.1.4-.19,0.79-0.25,1.18a11.5,11.5,0,0,0,3.36,9.83l0.3,0.32c0.33,0.34.66,0.66,1,1l0.34,0.28c0.23,0.19.47,0.38,0.71,0.55l0.42,0.28c0.22,0.14.44,0.29,0.67,0.41l0.46,0.24,0.67,0.32,0.49,0.19,0.69,0.23,0.5,0.14c0.24,0.06.48,0.1,0.72,0.15l0.49,0.08c0.26,0,.52,0,0.78.06l0.46,0a11.25,11.25,0,0,0,1.23,0c3.59-.36,7.34-2.38,11.15-6C1189.65,630.52,1200.61,612.57,1220.26,585.49Z" transform="translate(-1114.02 -583.35)" fill="#66cdcc"/>
  </g>
</svg>
