<svg id="Layer_1" data-name="Layer 1" xmlns="http://www.w3.org/2000/svg" width="91.32" height="138.66" viewBox="0 0 91.32 138.66">
  <title>bulb</title>
  <g>
    <g>
      <path d="M225,1175.73a42.45,42.45,0,0,0,4.2.64,43.11,43.11,0,0,0,8.65,0c1.4-.14,2.82-0.36,4.2-0.64,1-.21,2.06-0.48,3.08-0.77v-8.72a44.87,44.87,0,0,1-23.2,0V1175C222.92,1175.25,223.94,1175.52,225,1175.73Z" transform="translate(-187.84 -1054.86)" fill="#66cdcc"/>
      <path d="M242.56,1178.34c-1.47.3-3,.53-4.46,0.68a45.72,45.72,0,0,1-9.19,0c-1.49-.15-3-0.38-4.46-0.68-0.85-.17-1.7-0.38-2.54-0.61v1.08a10.9,10.9,0,0,0,8.44,10.6,3.28,3.28,0,1,0,6.33,0,10.9,10.9,0,0,0,8.44-10.6v-1.08C244.26,1178,243.41,1178.17,242.56,1178.34Z" transform="translate(-187.84 -1054.86)" fill="#66cdcc"/>
    </g>
    <path d="M215.72,1121.68a6.53,6.53,0,1,0,0,13.07h6.53v-6.53A6.54,6.54,0,0,0,215.72,1121.68Z" transform="translate(-187.84 -1054.86)" fill="#3EAE68"/>
    <path d="M251.28,1121.68a6.54,6.54,0,0,0-6.53,6.53v6.53h6.53A6.53,6.53,0,1,0,251.28,1121.68Z" transform="translate(-187.84 -1054.86)" fill="#3EAE68"/>
    <g>
      <path d="M233.5,1069.41a1.34,1.34,0,0,1-1.34-1.34V1056.2a1.34,1.34,0,1,1,2.67,0v11.88A1.34,1.34,0,0,1,233.5,1069.41Z" transform="translate(-187.84 -1054.86)" fill="#66cdcc"/>
      <path d="M269.43,1084.73a1.34,1.34,0,0,1-.94-2.28l8.4-8.4a1.34,1.34,0,0,1,1.89,1.89l-8.4,8.4A1.33,1.33,0,0,1,269.43,1084.73Z" transform="translate(-187.84 -1054.86)" fill="#66cdcc"/>
      <path d="M197.57,1084.73a1.33,1.33,0,0,1-.94-0.39l-8.4-8.4a1.34,1.34,0,1,1,1.89-1.89l8.4,8.4A1.34,1.34,0,0,1,197.57,1084.73Z" transform="translate(-187.84 -1054.86)" fill="#66cdcc"/>
    </g>
    <path d="M251.28,1137.42h-6.53v26.14h0a41.55,41.55,0,1,0-2.49.61,1.3,1.3,0,0,1-.18-0.63v-26.14H224.93v15.14a1.34,1.34,0,1,1-2.67,0v-15.14h-6.53a9.2,9.2,0,1,1,9.2-9.2v6.53h17.15v-6.53A9.2,9.2,0,1,1,251.28,1137.42Zm-17.78-49.25a34.68,34.68,0,0,0-34.64,34.64,1.34,1.34,0,1,1-2.67,0,37.36,37.36,0,0,1,37.31-37.32A1.34,1.34,0,0,1,233.5,1088.17Z" transform="translate(-187.84 -1054.86)" fill="#3EAE68"/>
  </g>
</svg>
