<svg xmlns="http://www.w3.org/2000/svg" viewBox="0 0 200 208" id="catico" height="200">
	<filter id="polycleaner" color-interpolation-filters="sRGB">
		<feComponentTransfer>
			<feFuncA type="table" tableValues="0 0.5 1 1" />
		</feComponentTransfer>
	</filter>
	<g filter="url(#polycleaner)" transform="translate(-3.1216108,-2.3839405)">
		<g class="left" transform="translate(-6.6167612,-8.7829805)">
			<path style="fill:#131112" d="M 39.085087,11.166921 83.565758,68.149559 110.21468,58.082184 Z"/>
			<path style="fill:#faf9f5" d="M 58.956631,68.01796 83.565758,68.149559 39.085087,11.166921 Z" />
			<path style="fill:#e4e4e2" d="M 39.085087,11.166921 20.529541,95.785477 58.956631,68.01796 Z" />
			<path style="fill:#181818" d="M 9.738372,95.390678 20.529541,95.785477 39.085087,11.166921 Z" />
			<path style="fill:#1f1d1e" d="M 9.738372,95.390678 23.029934,109.73504 20.529541,95.785477 Z" />
			<path style="fill:#11100e" d="m 58.956631,68.01796 15.528751,48.95505 9.080376,-48.823451 z" />
			<path style="fill:#100f0d" d="M 20.529541,95.785477 74.485382,116.97301 58.956631,68.01796 Z" />
			<path style="fill:#12110f" d="M 23.029934,109.73504 74.485382,116.97301 20.529541,95.785477 Z" />
			<path style="fill:#b3b3b3" d="M 45.007069,132.63338 74.485382,116.97301 23.029934,109.73504 Z" />
			<path style="fill:#100f0d" d="M 74.485382,116.97301 110.21468,58.082184 83.565758,68.149559 Z" />
			<path style="fill:#e7e6e4" d="m 23.029934,109.73504 10.133171,34.61069 11.843964,-11.71235 z" />
			<path style="fill:#ababab" d="M 61.983421,148.42532 74.485382,116.97301 45.007069,132.63338 Z" />
			<path style="fill:#141311" d="m 33.163105,144.34573 28.820316,4.07959 -16.976352,-15.79194 z" />
			<path style="fill:#f9f8f6" d="M 33.163105,144.34573 47.90226,166.58607 61.983421,148.42532 Z" />
			<path style="fill:#aaaaaa" d="M 85.40815,167.50726 74.485382,116.97301 61.983421,148.42532 Z" />
			<path style="fill:#141311" d="m 85.40815,167.50726 24.74073,1.18441 -35.663498,-51.71866 z" />
			<path style="fill:#f5f4f0" d="M 110.14888,168.69167 110.21468,58.082184 74.485382,116.97301 Z" />
			<path style="fill:#f6f5f1" d="M 56.982635,179.61444 61.983421,148.42532 47.90226,166.58607 Z" />
			<path style="fill:#f8f7f3" d="M 56.982635,179.61444 85.40815,167.50726 61.983421,148.42532 Z" />
			<path style="fill:#e7e6e2" d="m 56.982635,179.61444 20.529542,1.44759 7.895973,-13.55477 z" />
			<path style="fill:#9e9d99" d="m 56.982635,179.61444 11.975564,13.68636 8.553978,-12.23877 z" />
			<path style="fill:#a0a0a0" d="m 85.40815,167.50726 24.74073,27.10953 0,-25.92512 z" />
			<path style="fill:#f8f7f5" d="M 77.512177,181.06203 110.14888,194.61679 85.40815,167.50726 Z" />
			<path style="fill:#f6e4e0" d="m 110.14888,194.61679 -10.922768,18.16075 10.922768,-9.08037 z" />
			<path style="fill:#f8f7f5" d="m 77.512177,181.06203 21.713935,31.71551 10.922768,-18.16075 z" />
			<path style="fill:#f8f7f3" d="M 68.958199,193.3008 99.226112,212.77754 77.512177,181.06203 Z" />
			<path style="fill:#e4e3df" d="m 99.226112,212.77754 10.922768,0 0,-9.52875 z" />
		</g>
		<g class="right" transform="matrix(-1,0,0,1,213.61909,-8.7659605)">
			<path style="fill:#131112" d="M 39.085087,11.166921 83.565758,68.149559 110.21468,58.082184 Z" />
			<path style="fill:#faf9f5" d="M 58.956631,68.01796 83.565758,68.149559 39.085087,11.166921 Z" />
			<path style="fill:#e4e4e2" d="M 39.085087,11.166921 20.529541,95.785477 58.956631,68.01796 Z" />
			<path style="fill:#181818" d="M 9.738372,95.390678 20.529541,95.785477 39.085087,11.166921 Z" />
			<path style="fill:#1f1d1e" d="M 9.738372,95.390678 23.029934,109.73504 20.529541,95.785477 Z" />
			<path style="fill:#11100e" d="m 58.956631,68.01796 15.528751,48.95505 9.080376,-48.823451 z" />
			<path style="fill:#100f0d" d="M 20.529541,95.785477 74.485382,116.97301 58.956631,68.01796 Z" />
			<path style="fill:#12110f" d="M 23.029934,109.73504 74.485382,116.97301 20.529541,95.785477 Z" />
			<path style="fill:#b3b3b3" d="M 45.007069,132.63338 74.485382,116.97301 23.029934,109.73504 Z" />
			<path style="fill:#100f0d" d="M 74.485382,116.97301 110.21468,58.082184 83.565758,68.149559 Z" />
			<path style="fill:#e7e6e4" d="m 23.029934,109.73504 10.133171,34.61069 11.843964,-11.71235 z" />
			<path style="fill:#ababab" d="M 61.983421,148.42532 74.485382,116.97301 45.007069,132.63338 Z" />
			<path style="fill:#141311" d="m 33.163105,144.34573 28.820316,4.07959 -16.976352,-15.79194 z" />
			<path style="fill:#f9f8f6" d="M 33.163105,144.34573 47.90226,166.58607 61.983421,148.42532 Z" />
			<path style="fill:#aaaaaa" d="M 85.40815,167.50726 74.485382,116.97301 61.983421,148.42532 Z" />
			<path style="fill:#141311" d="m 85.40815,167.50726 24.74073,1.18441 -35.663498,-51.71866 z" />
			<path style="fill:#f5f4f0" d="M 110.14888,168.69167 110.21468,58.082184 74.485382,116.97301 Z" />
			<path style="fill:#f6f5f1" d="M 56.982635,179.61444 61.983421,148.42532 47.90226,166.58607 Z" />
			<path style="fill:#f8f7f3" d="M 56.982635,179.61444 85.40815,167.50726 61.983421,148.42532 Z" />
			<path style="fill:#e7e6e2" d="m 56.982635,179.61444 20.529542,1.44759 7.895973,-13.55477 z" />
			<path style="fill:#9e9d99" d="m 56.982635,179.61444 11.975564,13.68636 8.553978,-12.23877 z" />
			<path style="fill:#a0a0a0" d="m 85.40815,167.50726 24.74073,27.10953 0,-25.92512 z" />
			<path style="fill:#f8f7f5" d="M 77.512177,181.06203 110.14888,194.61679 85.40815,167.50726 Z" />
			<path style="fill:#f6e4e0" d="m 110.14888,194.61679 -10.922768,18.16075 10.922768,-9.08037 z" />
			<path style="fill:#f8f7f5" d="m 77.512177,181.06203 21.713935,31.71551 10.922768,-18.16075 z" />
			<path style="fill:#f8f7f3" d="M 68.958199,193.3008 99.226112,212.77754 77.512177,181.06203 Z" />
			<path style="fill:#e4e3df" d="m 99.226112,212.77754 10.922768,0 0,-9.52875 z" />
		</g>
	</g>
</svg>