<?xml version="1.0" encoding="UTF-8" standalone="no"?>
<svg
   xmlns:dc="http://purl.org/dc/elements/1.1/"
   xmlns:cc="http://creativecommons.org/ns#"
   xmlns:rdf="http://www.w3.org/1999/02/22-rdf-syntax-ns#"
   xmlns:svg="http://www.w3.org/2000/svg"
   xmlns="http://www.w3.org/2000/svg"
   version="1.1"
   id="svg2"
   height="200"
   viewBox="0 0 200 208">
  <metadata
     id="metadata127">
    <rdf:RDF>
      <cc:Work
         rdf:about="">
        <dc:format>image/svg+xml</dc:format>
        <dc:type
           rdf:resource="http://purl.org/dc/dcmitype/StillImage" />
        <dc:title></dc:title>
      </cc:Work>
    </rdf:RDF>
  </metadata>
  <defs
     id="defs125" />
  <filter
     color-interpolation-filters="sRGB"
     id="a">
    <feComponentTransfer
       id="feComponentTransfer5">
      <feFuncA
         id="feFuncA7"
         tableValues="0 0.5 1 1"
         type="table" />
    </feComponentTransfer>
  </filter>
  <g
     style="stroke:none;stroke-opacity:1;fill:none"
     id="g9"
     transform="translate(-3.122 -2.384)"
     filter="url(#a)">
    <g
       style="stroke:none;stroke-opacity:1;fill:none"
       id="g11"
       class="left">
      <path
         style="stroke:none;stroke-opacity:1;fill:none"
         id="path13"
         fill="#131112"
         d="M32.468 2.384L76.95 59.367l26.649-10.068z" />
      <path
         style="stroke:none;stroke-opacity:1;fill:none"
         id="path15"
         fill="#faf9f5"
         d="M52.34 59.235l24.609.132-44.48-56.983z" />
      <path
         style="stroke:none;stroke-opacity:1;fill:none"
         id="path17"
         fill="#e4e4e2"
         d="M32.468 2.384L13.913 87.002 52.34 59.235z" />
      <path
         style="stroke:none;stroke-opacity:1;fill:none"
         id="path19"
         fill="#181818"
         d="M3.122 86.608l10.79.394L32.469 2.384z" />
      <path
         style="stroke:none;stroke-opacity:1;fill:none"
         id="path21"
         fill="#1f1d1e"
         d="M3.122 86.608l13.291 14.344-2.5-13.95z" />
      <path
         style="stroke:none;stroke-opacity:1;fill:none"
         id="path23"
         fill="#11100e"
         d="M52.34 59.235l15.529 48.955 9.08-48.823z" />
      <path
         style="stroke:none;stroke-opacity:1;fill:none"
         id="path25"
         fill="#100f0d"
         d="M13.913 87.002l53.956 21.188-15.53-48.955z" />
      <path
         style="stroke:none;stroke-opacity:1;fill:none"
         id="path27"
         fill="#12110f"
         d="M16.413 100.952l51.456 7.238-53.956-21.188z" />
      <path
         style="stroke:none;stroke-opacity:1;fill:none"
         id="path29"
         fill="#b3b3b3"
         d="M38.39 123.85l29.479-15.66-51.456-7.238z" />
      <path
         style="stroke:none;stroke-opacity:1;fill:none"
         id="path31"
         fill="#100f0d"
         d="M67.869 108.19l35.729-58.89-26.649 10.067z" />
      <path
         style="stroke:none;stroke-opacity:1;fill:none"
         id="path33"
         fill="#e7e6e4"
         d="M16.413 100.952l10.133 34.61L38.39 123.85z" />
      <path
         style="stroke:none;stroke-opacity:1;fill:none"
         id="path35"
         fill="#ababab"
         d="M55.367 139.642l12.502-31.452-29.479 15.66z" />
      <path
         style="stroke:none;stroke-opacity:1;fill:none"
         id="path37"
         fill="#141311"
         d="M26.546 135.563l28.82 4.08L38.39 123.85z" />
      <path
         style="stroke:none;stroke-opacity:1;fill:none"
         id="path39"
         fill="#f9f8f6"
         d="M26.546 135.563l14.74 22.24 14.08-18.16z" />
      <path
         style="stroke:none;stroke-opacity:1;fill:none"
         id="path41"
         fill="#aaa"
         d="M78.791 158.724L67.87 108.19l-12.502 31.452z" />
      <path
         style="stroke:none;stroke-opacity:1;fill:none"
         id="path43"
         fill="#141311"
         d="M78.791 158.724l24.741 1.185L67.87 108.19z" />
      <path
         style="stroke:none;stroke-opacity:1;fill:none"
         id="path45"
         fill="#f5f4f0"
         d="M103.532 159.909l.066-110.61-35.73 58.891z" />
      <path
         style="stroke:none;stroke-opacity:1;fill:none"
         id="path47"
         fill="#f6f5f1"
         d="M50.366 170.831l5-31.189-14.08 18.161z" />
      <path
         style="stroke:none;stroke-opacity:1;fill:none"
         id="path49"
         fill="#f8f7f3"
         d="M50.366 170.831l28.425-12.107-23.424-19.082z" />
      <path
         style="stroke:none;stroke-opacity:1;fill:none"
         id="path51"
         fill="#e7e6e2"
         d="M50.366 170.831l20.53 1.448 7.895-13.555z" />
      <path
         style="stroke:none;stroke-opacity:1;fill:none"
         id="path53"
         fill="#9e9d99"
         d="M50.366 170.831l11.975 13.687 8.554-12.239z" />
      <path
         style="stroke:none;stroke-opacity:1;fill:none"
         id="path55"
         fill="#a0a0a0"
         d="M78.791 158.724l24.741 27.11v-25.925z" />
      <path
         style="stroke:none;stroke-opacity:1;fill:none"
         id="path57"
         fill="#f8f7f5"
         d="M70.895 172.279l32.637 13.555-24.74-27.11z" />
      <path
         style="stroke:none;stroke-opacity:1;fill:none"
         id="path59"
         fill="#f6e4e0"
         d="M103.532 185.834l-10.923 18.16 10.923-9.08z" />
      <path
         style="stroke:none;stroke-opacity:1;fill:none"
         id="path61"
         fill="#f8f7f5"
         d="M70.895 172.279l21.714 31.716 10.923-18.161z" />
      <path
         style="stroke:none;stroke-opacity:1;fill:none"
         id="path63"
         fill="#f8f7f3"
         d="M62.341 184.518l30.268 19.477-21.714-31.716z" />
      <path
         style="stroke:none;stroke-opacity:1;fill:none"
         id="path65"
         fill="#e4e3df"
         d="M92.61 203.995h10.922v-9.53z" />
    </g>
    <g
       style="stroke:none;stroke-opacity:1;fill:none"
       id="g67"
       class="right">
      <path
         style="stroke:none;stroke-opacity:1;fill:none"
         id="path69"
         fill="#131112"
         d="M174.534 2.401l-44.48 56.983-26.65-10.068z" />
      <path
         style="stroke:none;stroke-opacity:1;fill:none"
         id="path71"
         fill="#faf9f5"
         d="M154.662 59.252l-24.609.132L174.534 2.4z" />
      <path
         style="stroke:none;stroke-opacity:1;fill:none"
         id="path73"
         fill="#e4e4e2"
         d="M174.534 2.401L193.09 87.02l-38.428-27.768z" />
      <path
         style="stroke:none;stroke-opacity:1;fill:none"
         id="path75"
         fill="#181818"
         d="M203.88 86.625l-10.79.395L174.534 2.4z" />
      <path
         style="stroke:none;stroke-opacity:1;fill:none"
         id="path77"
         fill="#1f1d1e"
         d="M203.88 86.625l-13.29 14.344 2.5-13.95z" />
      <path
         style="stroke:none;stroke-opacity:1;fill:none"
         id="path79"
         fill="#11100e"
         d="M154.662 59.252l-15.528 48.955-9.08-48.823z" />
      <path
         style="stroke:none;stroke-opacity:1;fill:none"
         id="path81"
         fill="#100f0d"
         d="M193.09 87.02l-53.956 21.187 15.528-48.955z" />
      <path
         style="stroke:none;stroke-opacity:1;fill:none"
         id="path83"
         fill="#12110f"
         d="M190.59 100.97l-51.456 7.237L193.09 87.02z" />
      <path
         style="stroke:none;stroke-opacity:1;fill:none"
         id="path85"
         fill="#b3b3b3"
         d="M168.612 123.867l-29.478-15.66 51.455-7.238z" />
      <path
         style="stroke:none;stroke-opacity:1;fill:none"
         id="path87"
         fill="#100f0d"
         d="M139.134 108.207l-35.73-58.89 26.65 10.067z" />
      <path
         style="stroke:none;stroke-opacity:1;fill:none"
         id="path89"
         fill="#e7e6e4"
         d="M190.59 100.97l-10.134 34.61-11.844-11.713z" />
      <path
         style="stroke:none;stroke-opacity:1;fill:none"
         id="path91"
         fill="#ababab"
         d="M151.636 139.66l-12.502-31.453 29.478 15.66z" />
      <path
         style="stroke:none;stroke-opacity:1;fill:none"
         id="path93"
         fill="#141311"
         d="M180.456 135.58l-28.82 4.08 16.976-15.793z" />
      <path
         style="stroke:none;stroke-opacity:1;fill:none"
         id="path95"
         fill="#f9f8f6"
         d="M180.456 135.58l-14.74 22.24-14.08-18.16z" />
      <path
         style="stroke:none;stroke-opacity:1;fill:none"
         id="path97"
         fill="#aaa"
         d="M128.21 158.741l10.924-50.534 12.502 31.452z" />
      <path
         style="stroke:none;stroke-opacity:1;fill:none"
         id="path99"
         fill="#141311"
         d="M128.21 158.741l-24.74 1.185 35.664-51.719z" />
      <path
         style="stroke:none;stroke-opacity:1;fill:none"
         id="path101"
         fill="#f5f4f0"
         d="M103.47 159.926l-.066-110.61 35.73 58.891z" />
      <path
         style="stroke:none;stroke-opacity:1;fill:none"
         id="path103"
         fill="#f6f5f1"
         d="M156.636 170.848l-5-31.189 14.08 18.161z" />
      <path
         style="stroke:none;stroke-opacity:1;fill:none"
         id="path105"
         fill="#f8f7f3"
         d="M156.636 170.848l-28.425-12.107 23.425-19.082z" />
      <path
         style="stroke:none;stroke-opacity:1;fill:none"
         id="path107"
         fill="#e7e6e2"
         d="M156.636 170.848l-20.53 1.448-7.895-13.555z" />
      <path
         style="stroke:none;stroke-opacity:1;fill:none"
         id="path109"
         fill="#9e9d99"
         d="M156.636 170.848l-11.975 13.687-8.554-12.239z" />
      <path
         style="stroke:none;stroke-opacity:1;fill:none"
         id="path111"
         fill="#a0a0a0"
         d="M128.21 158.741l-24.74 27.11v-25.925z" />
      <path
         style="stroke:none;stroke-opacity:1;fill:none"
         id="path113"
         fill="#f8f7f5"
         d="M136.107 172.296l-32.637 13.555 24.74-27.11z" />
      <path
         style="stroke:none;stroke-opacity:1;fill:none"
         id="path115"
         fill="#f6e4e0"
         d="M103.47 185.85l10.923 18.162-10.923-9.08z" />
      <path
         style="stroke:none;stroke-opacity:1;fill:none"
         id="path117"
         fill="#f8f7f5"
         d="M136.107 172.296l-21.714 31.716-10.923-18.161z" />
      <path
         style="stroke:none;stroke-opacity:1;fill:none"
         id="path119"
         fill="#f8f7f3"
         d="M144.66 184.535l-30.267 19.477 21.714-31.716z" />
      <path
         style="stroke:none;stroke-opacity:1;fill:none"
         id="path121"
         fill="#e4e3df"
         d="M114.393 204.012H103.47v-9.53z" />
    </g>
  </g>
</svg>
