<svg id="Layer_1" data-name="Layer 1" xmlns="http://www.w3.org/2000/svg" width="100.57" height="116.73" viewBox="0 0 100.57 116.73">
  <title>globe</title>
  <g>
    <path d="M1163.57,347.48c-0.83,1.5-1.29,2.57-.34,3.68a1.34,1.34,0,0,1-1.32,2.17c-1-.09-7.13,1.05-8.86,3.91-0.25.41-1,1.66,0.54,3.94l0.06,0.09,0.05,0.1c0.12,0.23.26,0.47,0.4,0.71,1.33,2.24,2.36,4.88-1.18,8.28a3.15,3.15,0,0,1,1.28,1.32c0.83,1.67-.16,3.47-1.12,5.22-0.57,1-1.36,2.48-1.11,3.05a1.35,1.35,0,0,0,.71.54,30.67,30.67,0,0,1,11.58-8.36c-3.52-1.95-3.8-3.08-3.92-3.56a2,2,0,0,1,.36-1.7c2.06-2.81,4.77-1.67,6.56-.92,1,0.44,2,.85,2.7.58a3.59,3.59,0,0,0,1.49-2,1.34,1.34,0,0,1,2.57.46c0.05,1.29.61,1.56,1.08,1.65a3.25,3.25,0,0,0,3.09-1.46,1.34,1.34,0,0,1,2.39-.13,6.86,6.86,0,0,1,.8,5.79c-1.32,3.68-6.14,5.57-10.81,7.39a48.69,48.69,0,0,0-4.92,2.12c-3.23,1.72-13.84,7.93-14.66,15.51-0.37,3.44,1.38,6.84,5.22,10.12,5.3,4.53,8.43,2.12,12.38-.93,3-2.33,6.46-5,11-3.87,3.14,0.76,5.24,4,7.47,7.34a29,29,0,0,0,4.85,6.14c5,4.2,8.75,5.19,11.3,2.93,6.58-5.83,4.68-29.12.86-37.21a12.69,12.69,0,0,1-11.35,2.11c-5.21-1.48-9-5.71-10-8.94a1.59,1.59,0,0,1,.33-1.47c0.76-.85,2.11-0.79,5.51-0.44,0.56,0.06,1.27.13,1.74,0.16a3.94,3.94,0,0,1,2.6-2.1c1.65-.29,2.95.92,4.08,2a5.42,5.42,0,0,0,1.62,1.23s1-.37,2.14-5.39a0.26,0.26,0,0,0,0-.26c-0.88-1.26-5.88-1.85-8-2.1a16.67,16.67,0,0,1-2.7-.43,1.34,1.34,0,0,1-.6-2.14l0.07-.07a1.34,1.34,0,0,1,1.19-.37c3.52,0.67,5.82-1.35,7.86-3.14a14.8,14.8,0,0,1,2.43-1.85,47,47,0,0,0-30-11.74h-1.19a47.56,47.56,0,0,0-5.44.32A5,5,0,0,1,1163.57,347.48Z" transform="translate(-1116.5 -345.39)" fill="#66cdcc"/>
    <path d="M1129,354c0.25-.26.49-0.54,0.74-0.8s0.75-.74,1.14-1.1l-3.71-3.71a1.34,1.34,0,0,0-1.89,1.89Z" transform="translate(-1116.5 -345.39)" fill="#3EAE68"/>
    <path d="M1210.12,431.39c-0.3.32-.6,0.64-0.91,1s-0.65.62-1,.93l3.79,3.79a1.34,1.34,0,1,0,1.89-1.89Z" transform="translate(-1116.5 -345.39)" fill="#3EAE68"/>
    <path d="M1169.46,445.21h-0.62a52.94,52.94,0,0,1-36.4-90.8,53.69,53.69,0,0,1,5.8-4.91,1.34,1.34,0,0,1,1.58,2.16,50.87,50.87,0,0,0-5.51,4.67,50.27,50.27,0,0,0,70.28,71.9,50.82,50.82,0,0,0,5.21-6,1.34,1.34,0,0,1,2.14,1.6,53.57,53.57,0,0,1-5.49,6.27A52.59,52.59,0,0,1,1169.46,445.21Z" transform="translate(-1116.5 -345.39)" fill="#3EAE68"/>
    <path d="M1170.24,448.71a10,10,0,0,0-9.54,7.09h19.07A10,10,0,0,0,1170.24,448.71Z" transform="translate(-1116.5 -345.39)" fill="#3EAE68"/>
    <path d="M1190,458.47h-39.59a1.82,1.82,0,0,0,0,3.65H1190A1.82,1.82,0,0,0,1190,458.47Z" transform="translate(-1116.5 -345.39)" fill="#3EAE68"/>
    <g>
      <path d="M1204,360.08l-0.48-.48-0.05,0c-0.62-.56-1-0.49-3.19,1.44a25.21,25.21,0,0,1-2.73,2.17c2.45,0.5,4.43,1.23,5.36,2.55a2.92,2.92,0,0,1,.46,2.4c-1.1,4.69-2.25,6.82-4,7.34s-3.09-.8-4.21-1.85a4.91,4.91,0,0,0-1.79-1.3,2.53,2.53,0,0,0-1,1.32c-0.51,1-1.47.91-4,.65-0.66-.07-1.66-0.17-2.46-0.21a13.49,13.49,0,0,0,7.62,5.83,10.34,10.34,0,0,0,10.12-2.58,1.34,1.34,0,0,1,2,.26c4.87,7.39,7.53,34.78-.6,42a7.12,7.12,0,0,1-4.83,1.85c-2.53,0-5.8-1.21-10-4.75a30.84,30.84,0,0,1-5.35-6.71c-1.93-2.93-3.75-5.7-5.87-6.21-3.32-.8-6,1.24-8.76,3.39-3.92,3-8.79,6.78-15.75.84-4.55-3.88-6.62-8.07-6.14-12.44,0.94-8.63,11.54-15.17,16.06-17.57a50.2,50.2,0,0,1,5.21-2.25c3.92-1.53,8.35-3.27,9.26-5.8a3.22,3.22,0,0,0,.1-1.74,6,6,0,0,1-4.35,1.07,3.78,3.78,0,0,1-2.22-1.24,4.17,4.17,0,0,1-1.42,1c-1.68.69-3.31,0-4.75-.59-1.78-.75-2.47-0.9-3.11-0.28a19.91,19.91,0,0,0,5.16,3l0.12,0.06a1.34,1.34,0,0,1-.28,2.5c-8.57,2.08-13.87,9.08-13.93,9.15a1.34,1.34,0,0,1-1.41.49,4.45,4.45,0,0,1-3.29-2.33c-0.77-1.78.29-3.7,1.23-5.4,0.48-.87,1.28-2.32,1.07-2.74,0,0-.23-0.43-1.81-0.66a1.34,1.34,0,0,1-.59-2.4c4.31-3.12,3.42-4.62,2.39-6.36-0.17-.28-0.33-0.55-0.46-0.82-2.19-3.29-1.35-5.75-.26-7.23,1.95-2.65,6.24-4.07,9.06-4.54a6.69,6.69,0,0,1,1.1-4.66l0,0a47,47,0,0,0-9.67,2.84,77.26,77.26,0,0,0-8.25,10.55c-3.21,4.61-6,8.62-8.89,10.22a1.36,1.36,0,0,1-.9.35h0a1.39,1.39,0,0,1-.89-0.35,2.75,2.75,0,0,1-1.18-1.6c-0.46-1.7.73-3.65,1.89-5.53l0.29-.48a47.36,47.36,0,0,0-7.67,48.46,1.27,1.27,0,0,1,.2.14c4.09,4.25,13.78,9.92,19.25,10.47h0.06l0.35,0c8.34,1,9.18,7.43,9.8,12.11a15.69,15.69,0,0,0,1.08,4.77A47.3,47.3,0,0,0,1204,360.08Z" transform="translate(-1116.5 -345.39)" fill="#66cdcc"/>
      <path d="M1152.94,433.74c-0.62-4.72-1.21-9.18-7.82-9.85l-0.27,0c-4.52-.56-11.11-3.88-16-7.4a47.66,47.66,0,0,0,6.66,8.87,47,47,0,0,0,18,11.79C1153.25,436.07,1153.1,434.92,1152.94,433.74Z" transform="translate(-1116.5 -345.39)" fill="#66cdcc"/>
    </g>
    <path d="M1141.12,358c1.31-1.89,2.72-3.91,4.21-5.85a47.69,47.69,0,0,0-8.21,6.27l-0.1.1a1.38,1.38,0,0,1,.16.27c0.69,1.52-.41,3.32-1.58,5.23a20,20,0,0,0-1.47,2.71C1136.25,365,1138.63,361.62,1141.12,358Z" transform="translate(-1116.5 -345.39)" fill="#66cdcc"/>
  </g>
</svg>
