<svg id="Layer_1" data-name="Layer 1" xmlns="http://www.w3.org/2000/svg" width="113.93" height="113.94" viewBox="0 0 113.93 113.94">
  <title>pen</title>
  <path d="M751.41,1328.24a15.67,15.67,0,0,0-22.17,0l-10.37,10.37,13.68,13.68a1.34,1.34,0,1,1-1.89,1.89L717,1340.5l-46.66,46.66L684,1400.84a1.34,1.34,0,1,1-1.89,1.89l-13.68-13.68L653,1404.48a15.69,15.69,0,0,0-3.06,17.79l-3.61,3.61a1.34,1.34,0,0,0,0,1.89l1.83,1.83-5.71,5.71a1.34,1.34,0,1,0,1.89,1.89l5.71-5.71,1.83,1.83a1.33,1.33,0,0,0,1.89,0l3.61-3.61a15.69,15.69,0,0,0,17.79-3.06l64-64,0.94,0.94a10.33,10.33,0,0,1,0,14.61l-17.46,17.46a4.89,4.89,0,1,0,4.93-1.15L742,1380.11a13,13,0,0,0,0-18.39l-0.94-.94,10.37-10.37A15.69,15.69,0,0,0,751.41,1328.24Z" transform="translate(-642.07 -1323.65)" fill="#f4534e"/>
</svg>
