<svg id="Layer_1" data-name="Layer 1" xmlns="http://www.w3.org/2000/svg" width="106.77" height="106.77" viewBox="0 0 106.77 106.77">
  <title>pencil and ruler</title>
  <g>
    <g>
      <path d="M210.71,406.49l-5.28,5.28,4.68,4.68a1.34,1.34,0,0,1-1.89,1.89l-4.68-4.68-5.74,5.74,7.24,7.24a1.34,1.34,0,0,1-1.89,1.89l-7.24-7.24-15.13,15.13a1.33,1.33,0,0,0,0,1.89l19.06,19.06a1.34,1.34,0,0,0,1.89,0l29.93-29.93Z" transform="translate(-180.39 -350.99)" fill="#66cdcc"/>
      <path d="M249.88,383.14a1.33,1.33,0,0,1-.94-0.39l-7.24-7.24-5.12,5.12,20.95,20.95,29.24-29.24a1.33,1.33,0,0,0,0-1.89l-19.06-19.06a1.34,1.34,0,0,0-1.89,0l-7,7,4.68,4.68a1.34,1.34,0,0,1-1.89,1.89L257,360.24,251.22,366l4.68,4.68a1.34,1.34,0,0,1-1.89,1.89l-4.68-4.68-5.74,5.74,7.24,7.24A1.34,1.34,0,0,1,249.88,383.14Z" transform="translate(-180.39 -350.99)" fill="#66cdcc"/>
    </g>
    <circle cx="18.91" cy="87.86" r="3.56" fill="#fff"/>
    <path d="M280.54,428.27l-1.89-1.89a6.08,6.08,0,0,1-1.71,3.37L264.4,442.28a1.25,1.25,0,0,1-1.77-1.77L275.16,428a3.59,3.59,0,0,0,.17-4.92l-6.85-6.85-0.09-.07-50.25-50.25h0l-0.17-.17a2.09,2.09,0,0,0-.27-0.21,1.32,1.32,0,0,0-.55-0.43l-34.24-14a1.34,1.34,0,0,0-1.74,1.74l14,34.28a1.31,1.31,0,0,0,.37.49,2.09,2.09,0,0,0,.23.3l14.37,14.37h0l42.92,42.92,0.09,0.07,5.18,5.18A15.69,15.69,0,0,0,280.54,428.27ZM250.36,408a1.25,1.25,0,0,1-1.77,0l-33-33a7.54,7.54,0,0,0-10.59-.16l-0.06.06-0.06.06a7.54,7.54,0,0,0,.16,10.59l9.91,9.91,0,0,11.6,11.6a1.25,1.25,0,1,1-1.77,1.77L201.3,385.32a4.29,4.29,0,0,0-4.38-1L191,369.73l8.83-8.85,14.56,6a4.17,4.17,0,0,0,1,4.33l35,35A1.25,1.25,0,0,1,250.36,408Z" transform="translate(-180.39 -350.99)" fill="#3EAE68"/>
  </g>
</svg>
