<?xml version="1.0" encoding="UTF-8" standalone="no"?>
<svg
   xmlns:dc="http://purl.org/dc/elements/1.1/"
   xmlns:cc="http://creativecommons.org/ns#"
   xmlns:rdf="http://www.w3.org/1999/02/22-rdf-syntax-ns#"
   xmlns:svg="http://www.w3.org/2000/svg"
   xmlns="http://www.w3.org/2000/svg"
   xmlns:sodipodi="http://sodipodi.sourceforge.net/DTD/sodipodi-0.dtd"
   xmlns:inkscape="http://www.inkscape.org/namespaces/inkscape"
   id="Layer_1"
   data-name="Layer 1"
   width="119.81"
   height="98.66"
   viewBox="0 0 119.81 98.66"
   version="1.1"
   inkscape:version="0.91 r"
   sodipodi:docname="screen2.svg">
  <metadata
     id="metadata17">
    <rdf:RDF>
      <cc:Work
         rdf:about="">
        <dc:format>image/svg+xml</dc:format>
        <dc:type
           rdf:resource="http://purl.org/dc/dcmitype/StillImage" />
        <dc:title>brush painting</dc:title>
      </cc:Work>
    </rdf:RDF>
  </metadata>
  <defs
     id="defs15" />
  <sodipodi:namedview
     pagecolor="#ffffff"
     bordercolor="#666666"
     borderopacity="1"
     objecttolerance="10"
     gridtolerance="10"
     guidetolerance="10"
     inkscape:pageopacity="0"
     inkscape:pageshadow="2"
     inkscape:window-width="1920"
     inkscape:window-height="1056"
     id="namedview13"
     showgrid="false"
     inkscape:zoom="8.7926651"
     inkscape:cx="40.172643"
     inkscape:cy="53.879248"
     inkscape:window-x="0"
     inkscape:window-y="24"
     inkscape:window-maximized="1"
     inkscape:current-layer="g5" />
  <title
     id="title3">brush painting</title>
  <g
     id="g5">
    <path
       d="M936.58,668.32h35.51l-1.23-.52c-4.68-2-9-3.77-13-5.51H957a1.32,1.32,0,0,1-1.25-.93,144.62,144.62,0,0,1-22.53-12,20.3,20.3,0,0,1-6.91-7.21,19.84,19.84,0,0,1-3.71,1.12,18.66,18.66,0,0,1-2.26.3c-0.42,0-.85,0-1.27,0A20.68,20.68,0,0,1,905.37,638C898,631.44,896,622.2,894,613.27c-0.46-2.13-.89-4.14-1.4-6.07a4,4,0,0,1,3.83-5h0a4,4,0,0,1,2.5.89c2,1.63,5.36,2.45,10,2.45,0.86,0,1.77,0,2.72-.08,1.63-.1,3.55-0.2,5.46-0.2,4.83,0,10.94.58,15.42,5.09,3,3.06,4.81,7.45,5.36,13.3a19.49,19.49,0,0,1,10.16,3.8c10.37,7.06,19.06,15.87,31.09,28.06,3.51,3.56,7.46,7.55,11.74,11.79a6.13,6.13,0,0,0,2.83-5.16V590a6.14,6.14,0,0,0-6.14-6.14H880A6.14,6.14,0,0,0,873.9,590v72.18a6.14,6.14,0,0,0,6.14,6.14h51l-9.52,11.77a1.5,1.5,0,1,0,2.33,1.89l8.46-10.46V681a1.5,1.5,0,0,0,3,0v-9.52L943.77,682a1.5,1.5,0,0,0,2.33-1.89Zm51.2-10.09h0v0h0v0h0v0.05h0v0.07h0a4,4,0,0,1-.66,1.48H986.9l-0.23.26a1.34,1.34,0,0,1-1.94-1.84,1.38,1.38,0,0,0,.38-0.95V657.3a1.34,1.34,0,1,1,2.67,0v0.93Zm0-6.93a1.34,1.34,0,0,1-2.67,0v-4a1.34,1.34,0,1,1,2.67,0v4Zm0-10a1.34,1.34,0,0,1-2.67,0v-4a1.34,1.34,0,1,1,2.67,0v4Zm0-10a1.34,1.34,0,0,1-2.67,0v-4a1.34,1.34,0,1,1,2.67,0v4Zm0-10a1.34,1.34,0,0,1-2.67,0v-4a1.34,1.34,0,1,1,2.67,0v4Zm0-10a1.34,1.34,0,0,1-2.67,0v-4a1.34,1.34,0,1,1,2.67,0v4Zm0-14v4a1.34,1.34,0,0,1-2.67,0v-4A1.34,1.34,0,1,1,987.78,597.3Zm-8.06-7.4h5.75l0,0h0.08l0,0h0l0.07,0h0l0,0h0l0,0h0l0,0h0l0,0h0l0.07,0h0l0.2,0.14h0l0,0h0l0,0h0l0,0h0l0,0h0l0,0h0l0,0h0l0,0h0.48l0,0h0l0,0h0l0.06,0.08a1.34,1.34,0,0,1-2.12,1.63,1.38,1.38,0,0,0-1.1-.54h-4A1.34,1.34,0,0,1,979.72,589.9Zm-10,0h4a1.34,1.34,0,1,1,0,2.67h-4A1.34,1.34,0,0,1,969.72,589.9Zm-10,0h4a1.34,1.34,0,1,1,0,2.67h-4A1.34,1.34,0,0,1,959.72,589.9Zm-10,0h4a1.34,1.34,0,1,1,0,2.67h-4A1.34,1.34,0,0,1,949.72,589.9Zm-10,0h4a1.34,1.34,0,1,1,0,2.67h-4A1.34,1.34,0,0,1,939.72,589.9Zm-10,0h4a1.34,1.34,0,1,1,0,2.67h-4A1.34,1.34,0,0,1,929.72,589.9Zm-10,0h4a1.34,1.34,0,1,1,0,2.67h-4A1.34,1.34,0,0,1,919.72,589.9Zm-10,0h4a1.34,1.34,0,1,1,0,2.67h-4A1.34,1.34,0,0,1,909.72,589.9Zm-10,0h4a1.34,1.34,0,1,1,0,2.67h-4A1.34,1.34,0,0,1,899.72,589.9Zm-10,0h4a1.34,1.34,0,1,1,0,2.67h-4A1.34,1.34,0,0,1,889.72,589.9Zm-9.89,7.85a1.34,1.34,0,0,1,2.67,0v4a1.34,1.34,0,1,1-2.67,0v-4Zm0,10a1.34,1.34,0,0,1,2.67,0v4a1.34,1.34,0,1,1-2.67,0v-4Zm0,10a1.34,1.34,0,0,1,2.67,0v4a1.34,1.34,0,1,1-2.67,0v-4Zm0,10a1.34,1.34,0,0,1,2.67,0v4a1.34,1.34,0,1,1-2.67,0v-4Zm0,10a1.34,1.34,0,0,1,2.67,0v4a1.34,1.34,0,1,1-2.67,0v-4Zm0,10a1.34,1.34,0,0,1,2.67,0v4a1.34,1.34,0,1,1-2.67,0v-4Zm3.31,13.42a1.34,1.34,0,0,1-1.88.15,4.08,4.08,0,0,1-.88-1h0l0-.06,0-.05h0l0,0h0l0,0h0v0h0v0h0v0h0v0h0v0h0v0h0v0H880v0h-0.17v-0.48a1.34,1.34,0,0,1,2.67,0v0.48a1.39,1.39,0,0,0,.49,1.06A1.34,1.34,0,0,1,883.14,661.18Zm0.69-68.6a1.38,1.38,0,0,0-1.13.67,1.34,1.34,0,0,1-2.28-1.38h0.4l0,0h0l0,0h0l0,0h0l0,0a4,4,0,0,1,2.4-1.28h0.49A1.34,1.34,0,0,1,883.83,592.58Zm7.2,69.72h-4a1.34,1.34,0,1,1,0-2.67h4A1.34,1.34,0,0,1,891,662.29Zm10,0h-4a1.34,1.34,0,1,1,0-2.67h4A1.34,1.34,0,0,1,901,662.29Zm10,0h-4a1.34,1.34,0,1,1,0-2.67h4A1.34,1.34,0,0,1,911,662.29Zm10,0h-4a1.34,1.34,0,1,1,0-2.67h4A1.34,1.34,0,0,1,921,662.29Zm10,0h-4a1.34,1.34,0,1,1,0-2.67h4A1.34,1.34,0,0,1,931,662.29Zm16-2.67h4a1.34,1.34,0,0,1,0,2.67h-4A1.34,1.34,0,1,1,947,659.62ZM935.69,661a1.34,1.34,0,0,1,1.34-1.34h4a1.34,1.34,0,0,1,0,2.67h-4A1.34,1.34,0,0,1,935.69,661Z"
       transform="translate(-873.9 -583.87)"
       fill="#66cdcc"
       id="path9" />
  </g>
</svg>
