<svg id="Layer_1" data-name="Layer 1" xmlns="http://www.w3.org/2000/svg" width="119.81" height="98.66" viewBox="0 0 119.81 98.66">
  <title>brush painting</title>
  <g>
    <path d="M990,672.93a1,1,0,0,0,.27-0.06l0.08,0a1.24,1.24,0,0,0,.23-0.14l0.06,0a1.32,1.32,0,0,0,.23-0.26,1.08,1.08,0,0,0,0-1.36c-18.85-18.57-30-31.3-43.16-40.56h0c-0.28.1-6.53,2.48-8.68,11.22a1.34,1.34,0,0,1-1.3,1,1.35,1.35,0,0,1-.32,0,1.34,1.34,0,0,1-1-1.62c1.83-7.41,6.29-10.89,8.73-12.29l0,0a18,18,0,0,0-5-2.08l-0.39-.09-0.55-.09-0.51-.07-0.48,0-0.55,0c-0.27,0-.53,0-0.79,0h0a9.35,9.35,0,0,0-7.22,4.38l-0.2.29a9.35,9.35,0,0,0-1.38,8.33c0.91,2.79,3.17,5.42,6.72,7.8,13.74,9.24,29.91,14.81,54.83,25.7h0a0.82,0.82,0,0,0,.31.06H990Z" transform="translate(-873.9 -583.87)" fill="#3EAE68"/>
    <path d="M936.58,668.32h35.51l-1.23-.52c-4.68-2-9-3.77-13-5.51H957a1.32,1.32,0,0,1-1.25-.93,144.62,144.62,0,0,1-22.53-12,20.3,20.3,0,0,1-6.91-7.21,19.84,19.84,0,0,1-3.71,1.12,18.66,18.66,0,0,1-2.26.3c-0.42,0-.85,0-1.27,0A20.68,20.68,0,0,1,905.37,638C898,631.44,896,622.2,894,613.27c-0.46-2.13-.89-4.14-1.4-6.07a4,4,0,0,1,3.83-5h0a4,4,0,0,1,2.5.89c2,1.63,5.36,2.45,10,2.45,0.86,0,1.77,0,2.72-.08,1.63-.1,3.55-0.2,5.46-0.2,4.83,0,10.94.58,15.42,5.09,3,3.06,4.81,7.45,5.36,13.3a19.49,19.49,0,0,1,10.16,3.8c10.37,7.06,19.06,15.87,31.09,28.06,3.51,3.56,7.46,7.55,11.74,11.79a6.13,6.13,0,0,0,2.83-5.16V590a6.14,6.14,0,0,0-6.14-6.14H880A6.14,6.14,0,0,0,873.9,590v72.18a6.14,6.14,0,0,0,6.14,6.14h51l-9.52,11.77a1.5,1.5,0,1,0,2.33,1.89l8.46-10.46V681a1.5,1.5,0,0,0,3,0v-9.52L943.77,682a1.5,1.5,0,0,0,2.33-1.89Zm51.2-10.09h0v0h0v0h0v0.05h0v0.07h0a4,4,0,0,1-.66,1.48H986.9l-0.23.26a1.34,1.34,0,0,1-1.94-1.84,1.38,1.38,0,0,0,.38-0.95V657.3a1.34,1.34,0,1,1,2.67,0v0.93Zm0-6.93a1.34,1.34,0,0,1-2.67,0v-4a1.34,1.34,0,1,1,2.67,0v4Zm0-10a1.34,1.34,0,0,1-2.67,0v-4a1.34,1.34,0,1,1,2.67,0v4Zm0-10a1.34,1.34,0,0,1-2.67,0v-4a1.34,1.34,0,1,1,2.67,0v4Zm0-10a1.34,1.34,0,0,1-2.67,0v-4a1.34,1.34,0,1,1,2.67,0v4Zm0-10a1.34,1.34,0,0,1-2.67,0v-4a1.34,1.34,0,1,1,2.67,0v4Zm0-14v4a1.34,1.34,0,0,1-2.67,0v-4A1.34,1.34,0,1,1,987.78,597.3Zm-8.06-7.4h5.75l0,0h0.08l0,0h0l0.07,0h0l0,0h0l0,0h0l0,0h0l0,0h0l0.07,0h0l0.2,0.14h0l0,0h0l0,0h0l0,0h0l0,0h0l0,0h0l0,0h0l0,0h0.48l0,0h0l0,0h0l0.06,0.08a1.34,1.34,0,0,1-2.12,1.63,1.38,1.38,0,0,0-1.1-.54h-4A1.34,1.34,0,0,1,979.72,589.9Zm-10,0h4a1.34,1.34,0,1,1,0,2.67h-4A1.34,1.34,0,0,1,969.72,589.9Zm-10,0h4a1.34,1.34,0,1,1,0,2.67h-4A1.34,1.34,0,0,1,959.72,589.9Zm-10,0h4a1.34,1.34,0,1,1,0,2.67h-4A1.34,1.34,0,0,1,949.72,589.9Zm-10,0h4a1.34,1.34,0,1,1,0,2.67h-4A1.34,1.34,0,0,1,939.72,589.9Zm-10,0h4a1.34,1.34,0,1,1,0,2.67h-4A1.34,1.34,0,0,1,929.72,589.9Zm-10,0h4a1.34,1.34,0,1,1,0,2.67h-4A1.34,1.34,0,0,1,919.72,589.9Zm-10,0h4a1.34,1.34,0,1,1,0,2.67h-4A1.34,1.34,0,0,1,909.72,589.9Zm-10,0h4a1.34,1.34,0,1,1,0,2.67h-4A1.34,1.34,0,0,1,899.72,589.9Zm-10,0h4a1.34,1.34,0,1,1,0,2.67h-4A1.34,1.34,0,0,1,889.72,589.9Zm-9.89,7.85a1.34,1.34,0,0,1,2.67,0v4a1.34,1.34,0,1,1-2.67,0v-4Zm0,10a1.34,1.34,0,0,1,2.67,0v4a1.34,1.34,0,1,1-2.67,0v-4Zm0,10a1.34,1.34,0,0,1,2.67,0v4a1.34,1.34,0,1,1-2.67,0v-4Zm0,10a1.34,1.34,0,0,1,2.67,0v4a1.34,1.34,0,1,1-2.67,0v-4Zm0,10a1.34,1.34,0,0,1,2.67,0v4a1.34,1.34,0,1,1-2.67,0v-4Zm0,10a1.34,1.34,0,0,1,2.67,0v4a1.34,1.34,0,1,1-2.67,0v-4Zm3.31,13.42a1.34,1.34,0,0,1-1.88.15,4.08,4.08,0,0,1-.88-1h0l0-.06,0-.05h0l0,0h0l0,0h0v0h0v0h0v0h0v0h0v0h0v0h0v0H880v0h-0.17v-0.48a1.34,1.34,0,0,1,2.67,0v0.48a1.39,1.39,0,0,0,.49,1.06A1.34,1.34,0,0,1,883.14,661.18Zm0.69-68.6a1.38,1.38,0,0,0-1.13.67,1.34,1.34,0,0,1-2.28-1.38h0.4l0,0h0l0,0h0l0,0h0l0,0a4,4,0,0,1,2.4-1.28h0.49A1.34,1.34,0,0,1,883.83,592.58Zm7.2,69.72h-4a1.34,1.34,0,1,1,0-2.67h4A1.34,1.34,0,0,1,891,662.29Zm10,0h-4a1.34,1.34,0,1,1,0-2.67h4A1.34,1.34,0,0,1,901,662.29Zm10,0h-4a1.34,1.34,0,1,1,0-2.67h4A1.34,1.34,0,0,1,911,662.29Zm10,0h-4a1.34,1.34,0,1,1,0-2.67h4A1.34,1.34,0,0,1,921,662.29Zm10,0h-4a1.34,1.34,0,1,1,0-2.67h4A1.34,1.34,0,0,1,931,662.29Zm16-2.67h4a1.34,1.34,0,0,1,0,2.67h-4A1.34,1.34,0,1,1,947,659.62ZM935.69,661a1.34,1.34,0,0,1,1.34-1.34h4a1.34,1.34,0,0,1,0,2.67h-4A1.34,1.34,0,0,1,935.69,661Z" transform="translate(-873.9 -583.87)" fill="#66cdcc"/>
    <path d="M927.18,629.55l0.2-.3a12.08,12.08,0,0,1,7.85-5.37c-0.49-5.17-2-9-4.6-11.6-0.26-.26-0.53-0.5-0.8-0.73l-0.22-.18q-0.31-.25-0.63-0.48l-0.24-.17c-0.26-.18-0.53-0.35-0.81-0.51l-0.07,0c-0.3-.17-0.61-0.33-0.93-0.47l-0.26-.11-0.72-.3-0.3-.11-0.83-.27-0.17-.05c-0.34-.1-0.68-0.18-1-0.26l-0.27-.06-0.81-.15-0.34-.06-0.86-.12-0.25,0-1.13-.1-0.26,0-0.91,0h-0.37l-0.89,0h-0.6q-1.18,0-2.4.05h-0.15l-2.58.13c-0.77,0-1.51.07-2.23,0.08h-0.64c-0.55,0-1.08,0-1.6,0H907c-0.68,0-1.32-.09-1.94-0.16l-0.56-.08c-0.42-.06-0.84-0.12-1.23-0.2l-0.63-.14c-0.35-.08-0.68-0.16-1-0.26l-0.6-.19c-0.31-.1-0.61-0.21-0.9-0.33l-0.53-.22c-0.3-.13-0.57-0.28-0.85-0.43l-0.42-.23a10.21,10.21,0,0,1-1.06-.74l0,0,0,0a1.28,1.28,0,0,0-.34-0.19l-0.14,0a1,1,0,0,0-.51,0l-0.13,0a1.29,1.29,0,0,0-.33.14h0a1.29,1.29,0,0,0-.55,1.41c0.07,0.28.13,0.57,0.2,0.85,0.83,0.56,7.21,4.62,17.33,3.85,13.17-1,15.49,6.57,15.58,6.9a1.34,1.34,0,1,1-2.57.74c-0.07-.22-1.94-5.79-12.81-5a32.08,32.08,0,0,1-16.71-3l0.39,1.79c1.84,8.51,3.74,17.31,10.5,23.31l0.15,0.13c0.43,0.37.86,0.73,1.3,1.06,0.18,0.14.37,0.25,0.55,0.38s0.63,0.45,1,.65,0.43,0.25.64,0.37,0.6,0.35.9,0.5l0.68,0.32c0.29,0.14.59,0.27,0.89,0.39l0.7,0.25c0.3,0.1.59,0.2,0.89,0.29l0.72,0.18,0.9,0.19,0.72,0.11,0.92,0.09,0.71,0c0.47,0,.94,0,1.41,0a15.9,15.9,0,0,0,1.93-.26,17.32,17.32,0,0,0,3.24-1A12,12,0,0,1,927.18,629.55Z" transform="translate(-873.9 -583.87)" fill="#3EAE68"/>
  </g>
</svg>
